<svg id="additonal-information-icon" xmlns="http://www.w3.org/2000/svg" width="43.232" height="43.232" viewBox="0 0 43.232 43.232">
  <path id="Path_203" data-name="Path 203" d="M21.616,43.232a21.614,21.614,0,1,1,16.529-7.684,21.843,21.843,0,0,1-2.551,2.557,21.623,21.623,0,0,1-13.978,5.127Zm0-40.53a18.915,18.915,0,0,0-14.464,31.1,19.135,19.135,0,0,0,2.233,2.239,18.916,18.916,0,0,0,24.46,0,19.134,19.134,0,0,0,2.234-2.24A18.915,18.915,0,0,0,21.616,2.7Z" transform="translate(0 0)" fill="#02308a"/>
  <path id="Path_204" data-name="Path 204" d="M168.106,80.212a8.106,8.106,0,1,1,8.106-8.106A8.115,8.115,0,0,1,168.106,80.212Zm0-13.51a5.4,5.4,0,1,0,5.4,5.4A5.41,5.41,0,0,0,168.106,66.7Z" transform="translate(-146.49 -58.596)" fill="#02308a"/>
  <path id="Path_205" data-name="Path 205" d="M107.966,243.512a1.352,1.352,0,0,1-1.311-1.68A12.17,12.17,0,0,0,95.039,226.7h-.356a12.17,12.17,0,0,0-11.616,15.129,1.351,1.351,0,1,1-2.621.658A14.865,14.865,0,0,1,94.651,224h.421a14.872,14.872,0,0,1,14.2,18.489A1.352,1.352,0,0,1,107.966,243.512Z" transform="translate(-73.245 -205.086)" fill="#02308a"/>
</svg>
