<svg id="background-titles" xmlns="http://www.w3.org/2000/svg" width="160" height="222" viewBox="0 0 160 222">
  <g id="background-titles-2" data-name="background-titles" transform="translate(-1752 -1995)" opacity="0.39">
    <g id="Group_40" data-name="Group 40">
      <circle id="Ellipse_1" data-name="Ellipse 1" cx="7.5" cy="7.5" r="7.5" transform="translate(1752 1995)" fill="#d7d7d7"/>
      <circle id="Ellipse_2" data-name="Ellipse 2" cx="7.5" cy="7.5" r="7.5" transform="translate(1781 1995)" fill="#d7d7d7"/>
      <circle id="Ellipse_3" data-name="Ellipse 3" cx="7.5" cy="7.5" r="7.5" transform="translate(1810 1995)" fill="#d7d7d7"/>
      <circle id="Ellipse_4" data-name="Ellipse 4" cx="7.5" cy="7.5" r="7.5" transform="translate(1839 1995)" fill="#d7d7d7"/>
      <circle id="Ellipse_5" data-name="Ellipse 5" cx="7.5" cy="7.5" r="7.5" transform="translate(1868 1995)" fill="#d7d7d7"/>
      <circle id="Ellipse_6" data-name="Ellipse 6" cx="7.5" cy="7.5" r="7.5" transform="translate(1897 1995)" fill="#d7d7d7"/>
    </g>
    <g id="Group_44" data-name="Group 44" transform="translate(0 118)">
      <circle id="Ellipse_1-2" data-name="Ellipse 1" cx="7.5" cy="7.5" r="7.5" transform="translate(1752 1995)" fill="#d7d7d7"/>
      <circle id="Ellipse_2-2" data-name="Ellipse 2" cx="7.5" cy="7.5" r="7.5" transform="translate(1781 1995)" fill="#d7d7d7"/>
      <circle id="Ellipse_3-2" data-name="Ellipse 3" cx="7.5" cy="7.5" r="7.5" transform="translate(1810 1995)" fill="#d7d7d7"/>
      <circle id="Ellipse_4-2" data-name="Ellipse 4" cx="7.5" cy="7.5" r="7.5" transform="translate(1839 1995)" fill="#d7d7d7"/>
      <circle id="Ellipse_5-2" data-name="Ellipse 5" cx="7.5" cy="7.5" r="7.5" transform="translate(1868 1995)" fill="#d7d7d7"/>
      <circle id="Ellipse_6-2" data-name="Ellipse 6" cx="7.5" cy="7.5" r="7.5" transform="translate(1897 1995)" fill="#d7d7d7"/>
    </g>
    <g id="Group_42" data-name="Group 42" transform="translate(0 59)">
      <circle id="Ellipse_1-3" data-name="Ellipse 1" cx="7.5" cy="7.5" r="7.5" transform="translate(1752 1995)" fill="#d7d7d7"/>
      <circle id="Ellipse_2-3" data-name="Ellipse 2" cx="7.5" cy="7.5" r="7.5" transform="translate(1781 1995)" fill="#d7d7d7"/>
      <circle id="Ellipse_3-3" data-name="Ellipse 3" cx="7.5" cy="7.5" r="7.5" transform="translate(1810 1995)" fill="#d7d7d7"/>
      <circle id="Ellipse_4-3" data-name="Ellipse 4" cx="7.5" cy="7.5" r="7.5" transform="translate(1839 1995)" fill="#d7d7d7"/>
      <circle id="Ellipse_5-3" data-name="Ellipse 5" cx="7.5" cy="7.5" r="7.5" transform="translate(1868 1995)" fill="#d7d7d7"/>
      <circle id="Ellipse_6-3" data-name="Ellipse 6" cx="7.5" cy="7.5" r="7.5" transform="translate(1897 1995)" fill="#d7d7d7"/>
    </g>
    <g id="Group_46" data-name="Group 46" transform="translate(0 177)">
      <circle id="Ellipse_1-4" data-name="Ellipse 1" cx="7.5" cy="7.5" r="7.5" transform="translate(1752 1995)" fill="#d7d7d7"/>
      <circle id="Ellipse_2-4" data-name="Ellipse 2" cx="7.5" cy="7.5" r="7.5" transform="translate(1781 1995)" fill="#d7d7d7"/>
      <circle id="Ellipse_3-4" data-name="Ellipse 3" cx="7.5" cy="7.5" r="7.5" transform="translate(1810 1995)" fill="#d7d7d7"/>
      <circle id="Ellipse_4-4" data-name="Ellipse 4" cx="7.5" cy="7.5" r="7.5" transform="translate(1839 1995)" fill="#d7d7d7"/>
      <circle id="Ellipse_5-4" data-name="Ellipse 5" cx="7.5" cy="7.5" r="7.5" transform="translate(1868 1995)" fill="#d7d7d7"/>
      <circle id="Ellipse_6-4" data-name="Ellipse 6" cx="7.5" cy="7.5" r="7.5" transform="translate(1897 1995)" fill="#d7d7d7"/>
    </g>
    <g id="Group_41" data-name="Group 41" transform="translate(0 30)">
      <circle id="Ellipse_1-5" data-name="Ellipse 1" cx="7.5" cy="7.5" r="7.5" transform="translate(1752 1995)" fill="#d7d7d7"/>
      <circle id="Ellipse_2-5" data-name="Ellipse 2" cx="7.5" cy="7.5" r="7.5" transform="translate(1781 1995)" fill="#d7d7d7"/>
      <circle id="Ellipse_3-5" data-name="Ellipse 3" cx="7.5" cy="7.5" r="7.5" transform="translate(1810 1995)" fill="#d7d7d7"/>
      <circle id="Ellipse_4-5" data-name="Ellipse 4" cx="7.5" cy="7.5" r="7.5" transform="translate(1839 1995)" fill="#d7d7d7"/>
      <circle id="Ellipse_5-5" data-name="Ellipse 5" cx="7.5" cy="7.5" r="7.5" transform="translate(1868 1995)" fill="#d7d7d7"/>
      <circle id="Ellipse_6-5" data-name="Ellipse 6" cx="7.5" cy="7.5" r="7.5" transform="translate(1897 1995)" fill="#d7d7d7"/>
    </g>
    <g id="Group_45" data-name="Group 45" transform="translate(0 148)">
      <circle id="Ellipse_1-6" data-name="Ellipse 1" cx="7.5" cy="7.5" r="7.5" transform="translate(1752 1995)" fill="#d7d7d7"/>
      <circle id="Ellipse_2-6" data-name="Ellipse 2" cx="7.5" cy="7.5" r="7.5" transform="translate(1781 1995)" fill="#d7d7d7"/>
      <circle id="Ellipse_3-6" data-name="Ellipse 3" cx="7.5" cy="7.5" r="7.5" transform="translate(1810 1995)" fill="#d7d7d7"/>
      <circle id="Ellipse_4-6" data-name="Ellipse 4" cx="7.5" cy="7.5" r="7.5" transform="translate(1839 1995)" fill="#d7d7d7"/>
      <circle id="Ellipse_5-6" data-name="Ellipse 5" cx="7.5" cy="7.5" r="7.5" transform="translate(1868 1995)" fill="#d7d7d7"/>
      <circle id="Ellipse_6-6" data-name="Ellipse 6" cx="7.5" cy="7.5" r="7.5" transform="translate(1897 1995)" fill="#d7d7d7"/>
    </g>
    <g id="Group_43" data-name="Group 43" transform="translate(0 89)">
      <circle id="Ellipse_1-7" data-name="Ellipse 1" cx="7.5" cy="7.5" r="7.5" transform="translate(1752 1995)" fill="#d7d7d7"/>
      <circle id="Ellipse_2-7" data-name="Ellipse 2" cx="7.5" cy="7.5" r="7.5" transform="translate(1781 1995)" fill="#d7d7d7"/>
      <circle id="Ellipse_3-7" data-name="Ellipse 3" cx="7.5" cy="7.5" r="7.5" transform="translate(1810 1995)" fill="#d7d7d7"/>
      <circle id="Ellipse_4-7" data-name="Ellipse 4" cx="7.5" cy="7.5" r="7.5" transform="translate(1839 1995)" fill="#d7d7d7"/>
      <circle id="Ellipse_5-7" data-name="Ellipse 5" cx="7.5" cy="7.5" r="7.5" transform="translate(1868 1995)" fill="#d7d7d7"/>
      <circle id="Ellipse_6-7" data-name="Ellipse 6" cx="7.5" cy="7.5" r="7.5" transform="translate(1897 1995)" fill="#d7d7d7"/>
    </g>
    <g id="Group_47" data-name="Group 47" transform="translate(0 207)">
      <circle id="Ellipse_1-8" data-name="Ellipse 1" cx="7.5" cy="7.5" r="7.5" transform="translate(1752 1995)" fill="#d7d7d7"/>
      <circle id="Ellipse_2-8" data-name="Ellipse 2" cx="7.5" cy="7.5" r="7.5" transform="translate(1781 1995)" fill="#d7d7d7"/>
      <circle id="Ellipse_3-8" data-name="Ellipse 3" cx="7.5" cy="7.5" r="7.5" transform="translate(1810 1995)" fill="#d7d7d7"/>
      <circle id="Ellipse_4-8" data-name="Ellipse 4" cx="7.5" cy="7.5" r="7.5" transform="translate(1839 1995)" fill="#d7d7d7"/>
      <circle id="Ellipse_5-8" data-name="Ellipse 5" cx="7.5" cy="7.5" r="7.5" transform="translate(1868 1995)" fill="#d7d7d7"/>
      <circle id="Ellipse_6-8" data-name="Ellipse 6" cx="7.5" cy="7.5" r="7.5" transform="translate(1897 1995)" fill="#d7d7d7"/>
    </g>
  </g>
</svg>
