<?xml version="1.0" encoding="utf-8"?>
<!-- Generator: Adobe Illustrator 25.0.1, SVG Export Plug-In . SVG Version: 6.00 Build 0)  -->
<svg version="1.1" id="Circle1" xmlns="http://www.w3.org/2000/svg" xmlns:xlink="http://www.w3.org/1999/xlink" x="0px" y="0px"
	 viewBox="0 0 373 270" style="enable-background:new 0 0 373 270;" xml:space="preserve">
<style type="text/css">
	.st0{fill:#4F99FE;}
</style>
<g>
	<g>
		<path class="st0" d="M123.1,226.5c0-12.7,7.9-20.6,17.4-27.2c16-11.2,34.4-15.3,53.5-17.6c1.8-0.3,4.8,0.9,4.8-2.3
			c-0.1-3,1.7-6.4-1.8-8.7c-17.1-11.1-23.9-27.1-23.2-46.9c0.3-6.7,0-13.4,1.3-20.1c2.5-14,9.4-21.6,23.3-24.5
			c8.2-1.7,16.5-1.7,24.7-0.4c15.1,2.4,22,9,24.9,24.2c2.2,11.4,2.9,23,0.8,34.5c-2.4,13.3-9,24.2-20.4,31.7
			c-4.4,2.9-3.8,6.4-3.7,10.2c0.1,2.9,2.5,2.2,4.2,2.4c15,1.8,29.6,4.9,43.3,11.5c13.3,6.5,24,15.2,28.3,29.9c1,3.8-1.4,3.4-4,3.4
			C238.7,226.5,180.9,226.5,123.1,226.5z"/>
		<path class="st0" d="M72.3,186.1c10.2-23,31.1-30.4,53.2-35.9c5.4-1.3,11.2-1.6,16.6-2.8c2-0.4,5.6,0.9,5.8-2.7
			c0.2-3.3,1.2-6.7-2.9-9.4c-11.8-7.6-19.2-18.7-21.2-32.4c-2-13.1-2-26.5,1.9-39.5c2.8-9.4,9.2-15.7,19.1-18
			c12.3-2.8,24.5-3.3,36.6,1.4c7.2,2.9,11.8,8.4,14.4,15.6c1.1,3,0.4,3.8-2.6,4.6c-20.7,5.6-31,18.3-32.9,39.6
			c-1.4,16.1-2.3,32.1,4.7,47.4c2.8,6.1,6.9,11.4,11.2,17.1c-14.3,3.3-28.2,7.1-40,15.4c-7.2,5-14.3,6.2-22.6,6
			c-13.7-0.3-27.4,0.2-41.2,0.3C72.3,190.6,72.3,188.3,72.3,186.1z"/>
	</g>
</g>
</svg>
