<svg id="checklist-icon" xmlns="http://www.w3.org/2000/svg" width="66.733" height="77.317" viewBox="0 0 66.733 77.317">
  <g id="Group_173" data-name="Group 173">
    <g id="Group_170" data-name="Group 170">
      <g id="Group_158" data-name="Group 158">
        <path id="Path_206" data-name="Path 206" d="M80.642,110.224V44.981a2.856,2.856,0,0,0-2.856-2.856H37.9a2.856,2.856,0,0,0-2.856,2.856v65.243A2.856,2.856,0,0,0,37.9,113.08H77.786a2.856,2.856,0,0,0,2.856-2.856Z" transform="translate(-35.042 -35.764)" fill="#ffc250"/>
        <path id="Path_207" data-name="Path 207" d="M326.367,42.124h-9.559a2.856,2.856,0,0,1,2.856,2.856v65.243a2.856,2.856,0,0,1-2.856,2.856h9.559a2.856,2.856,0,0,0,2.856-2.856V44.98A2.856,2.856,0,0,0,326.367,42.124Z" transform="translate(-274.259 -35.763)" fill="#eab14d"/>
        <path id="Path_208" data-name="Path 208" d="M65.955,133.636V74.059a1.021,1.021,0,0,1,1.021-1.021h43.586a1.021,1.021,0,0,1,1.021,1.021v59.577a1.021,1.021,0,0,1-1.021,1.021H66.976A1.021,1.021,0,0,1,65.955,133.636Z" transform="translate(-61.287 -62.009)" fill="#f5f5f5"/>
        <path id="Path_209" data-name="Path 209" d="M307.607,73.038h-9.559a1.021,1.021,0,0,1,1.021,1.021v59.577a1.021,1.021,0,0,1-1.021,1.021h9.559a1.021,1.021,0,0,0,1.021-1.021V74.059A1.021,1.021,0,0,0,307.607,73.038Z" transform="translate(-258.332 -62.009)" fill="#eaeaea"/>
        <path id="Path_210" data-name="Path 210" d="M154.152,3.554v-1.5A2.051,2.051,0,0,0,152.1,0h-8.033a2.051,2.051,0,0,0-2.051,2.051v1.5a.839.839,0,0,1-.839.839h-3.343a2.014,2.014,0,0,0-2.014,2.014v4.622h24.527V6.407a2.014,2.014,0,0,0-2.014-2.014h-3.343a.839.839,0,0,1-.839-.839Z" transform="translate(-120.602)" fill="#c2d0da"/>
      </g>
      <g id="Group_163" data-name="Group 163" transform="translate(10.606 16.809)">
        <g id="Group_159" data-name="Group 159">
          <path id="Path_211" data-name="Path 211" d="M105.278,122.1v-8.991a1.8,1.8,0,0,1,1.8-1.8h8.991a1.8,1.8,0,0,1,1.8,1.8V122.1a1.8,1.8,0,0,1-1.8,1.8h-8.991A1.8,1.8,0,0,1,105.278,122.1Z" transform="translate(-105.278 -111.31)" fill="#66b49d"/>
          <path id="Path_212" data-name="Path 212" d="M105.278,246.144v-8.991a1.8,1.8,0,0,1,1.8-1.8h8.991a1.8,1.8,0,0,1,1.8,1.8v8.991a1.8,1.8,0,0,1-1.8,1.8h-8.991A1.8,1.8,0,0,1,105.278,246.144Z" transform="translate(-105.278 -216.619)" fill="#66b49d"/>
          <path id="Path_213" data-name="Path 213" d="M105.278,370.183v-8.991a1.8,1.8,0,0,1,1.8-1.8h8.991a1.8,1.8,0,0,1,1.8,1.8v8.991a1.8,1.8,0,0,1-1.8,1.8h-8.991A1.8,1.8,0,0,1,105.278,370.183Z" transform="translate(-105.278 -321.927)" fill="#66b49d"/>
        </g>
        <g id="Group_160" data-name="Group 160" transform="translate(2.641 3.079)">
          <path id="Path_214" data-name="Path 214" d="M125.664,138.138h0a1.627,1.627,0,0,1-1.307-.667l-1.362-1.871a1.167,1.167,0,1,1,1.886-1.374l.79,1.085,2.31-3.138a1.167,1.167,0,1,1,1.879,1.383l-2.886,3.921A1.627,1.627,0,0,1,125.664,138.138Z" transform="translate(-122.767 -131.699)" fill="#f6f9f9"/>
        </g>
        <g id="Group_161" data-name="Group 161" transform="translate(2.641 22.218)">
          <path id="Path_215" data-name="Path 215" d="M125.664,264.878h0a1.627,1.627,0,0,1-1.307-.667l-1.362-1.871a1.167,1.167,0,1,1,1.886-1.374l.79,1.085,2.31-3.138a1.167,1.167,0,1,1,1.879,1.383l-2.886,3.921A1.626,1.626,0,0,1,125.664,264.878Z" transform="translate(-122.767 -258.438)" fill="#f6f9f9"/>
        </g>
        <g id="Group_162" data-name="Group 162" transform="translate(2.641 40.541)">
          <path id="Path_216" data-name="Path 216" d="M125.664,386.22h0a1.627,1.627,0,0,1-1.307-.667l-1.362-1.871a1.167,1.167,0,0,1,1.887-1.373l.79,1.085,2.31-3.138a1.167,1.167,0,1,1,1.879,1.383l-2.886,3.921A1.627,1.627,0,0,1,125.664,386.22Z" transform="translate(-122.767 -379.78)" fill="#f6f9f9"/>
        </g>
      </g>
      <g id="Group_166" data-name="Group 166" transform="translate(27.847 19.503)">
        <g id="Group_164" data-name="Group 164">
          <path id="Path_217" data-name="Path 217" d="M235.041,131.486H220.618a1.167,1.167,0,0,1,0-2.333h14.424a1.167,1.167,0,1,1,0,2.333Z" transform="translate(-219.451 -129.153)" fill="#ddeafb"/>
        </g>
        <g id="Group_165" data-name="Group 165" transform="translate(0 4.876)">
          <path id="Path_218" data-name="Path 218" d="M227.83,163.773h-7.212a1.167,1.167,0,1,1,0-2.333h7.212a1.167,1.167,0,0,1,0,2.333Z" transform="translate(-219.452 -161.44)" fill="#ddeafb"/>
        </g>
      </g>
      <g id="Group_169" data-name="Group 169" transform="translate(27.848 38.234)">
        <g id="Group_167" data-name="Group 167" transform="translate(0)">
          <path id="Path_219" data-name="Path 219" d="M230.3,255.526h-9.678a1.167,1.167,0,0,1,0-2.333H230.3a1.167,1.167,0,0,1,0,2.333Z" transform="translate(-219.452 -253.193)" fill="#ddeafb"/>
        </g>
        <g id="Group_168" data-name="Group 168" transform="translate(0 4.876)">
          <path id="Path_220" data-name="Path 220" d="M227.83,287.813h-7.212a1.167,1.167,0,1,1,0-2.333h7.212a1.167,1.167,0,0,1,0,2.333Z" transform="translate(-219.452 -285.48)" fill="#ddeafb"/>
        </g>
      </g>
    </g>
    <g id="Group_172" data-name="Group 172" transform="translate(30.102 18.128)">
      <g id="Group_171" data-name="Group 171" transform="translate(1.916)">
        <path id="Path_221" data-name="Path 221" d="M277.245,176.513,276.1,175l-4.286-2.714-1.648-.26-21.948,34.683a9.034,9.034,0,0,0-1.15,2.716,7.07,7.07,0,0,1,6.266,3.968,9.033,9.033,0,0,0,1.964-2.2Z" transform="translate(-247.067 -164.18)" fill="#fc8086"/>
        <path id="Path_222" data-name="Path 222" d="M423.465,121.7l-1.852-1.173a3.094,3.094,0,0,0-4.269.959l-1.7,2.684.542,1.092,5.154,3.264,1.384.127,1.7-2.686A3.094,3.094,0,0,0,423.465,121.7Z" transform="translate(-390.188 -120.044)" fill="#8c9ba6"/>
      </g>
      <path id="Path_223" data-name="Path 223" d="M0,0H4.41V8.38H0Z" transform="matrix(0.535, -0.845, 0.845, 0.535, 25.017, 7.84)" fill="#c9e2e7"/>
      <path id="Path_224" data-name="Path 224" d="M242.56,423.659l-6.25,5.036a1.186,1.186,0,0,1-1.9-1.2l1.881-7.8A7.07,7.07,0,0,1,242.56,423.659Z" transform="translate(-234.378 -374.442)" fill="#7c8b96"/>
      <path id="Path_225" data-name="Path 225" d="M266.622,220.365l23.008-36.332-1.971-1.248-23.008,36.332A7.073,7.073,0,0,1,266.622,220.365Z" transform="translate(-260.079 -173.31)" fill="#fb636f"/>
    </g>
  </g>
</svg>
