<?xml version="1.0" encoding="utf-8"?>
<!-- Generator: Adobe Illustrator 25.0.1, SVG Export Plug-In . SVG Version: 6.00 Build 0)  -->
<svg version="1.1" id="Circle1" xmlns="http://www.w3.org/2000/svg" xmlns:xlink="http://www.w3.org/1999/xlink" x="0px" y="0px"
	 viewBox="0 0 373 326.4" style="enable-background:new 0 0 373 326.4;" xml:space="preserve">
<style type="text/css">
	.st0{fill:#B5FFBC;}
	.st1{fill:#FFFFFF;}
	.st2{fill:none;}
	.st3{enable-background:new    ;}
	.st4{fill:#3A3A3A;}
</style>
<g id="Path_25">
	<path class="st0" d="M201.3,0.5c1.4-0.8,3.2-0.6,4.4,0.5l11.1,10c1,0.9,2.4,1.2,3.6,0.8l14.1-4.6c1.5-0.5,3.2,0.1,4.2,1.4l8.8,12.1
		c0.8,1.1,2.1,1.7,3.4,1.5l14.8-1.5c1.6-0.2,3.1,0.7,3.8,2.2l6.1,13.7c0.5,1.2,1.7,2.1,3,2.2l14.8,1.6c1.6,0.2,2.9,1.4,3.2,2.9
		l3.2,14.6c0.3,1.3,1.2,2.4,2.5,2.8l14.1,4.7c1.5,0.5,2.6,1.9,2.6,3.6l0.1,15c0,1.3,0.7,2.6,1.9,3.2l12.8,7.6c1.4,0.8,2.1,2.4,1.8,4
		l-3,14.7c-0.3,1.3,0.2,2.6,1.1,3.5l11,10.1c1.2,1.1,1.6,2.8,0.9,4.3l-6,13.7c-0.5,1.2-0.4,2.6,0.4,3.7l8.7,12.2
		c0.9,1.3,0.9,3.1,0,4.4l-8.7,12.2c-0.8,1.1-0.9,2.5-0.4,3.7l6,13.7c0.6,1.5,0.3,3.2-0.9,4.3l-11,10.1c-1,0.9-1.4,2.2-1.1,3.6
		l3,14.7c0.3,1.6-0.4,3.2-1.8,4l-12.8,7.6c-1.1,0.7-1.8,1.9-1.9,3.2l-0.1,15c0,1.6-1,3-2.6,3.6l-14.1,4.7c-1.3,0.4-2.2,1.5-2.5,2.8
		l-3.2,14.6c-0.3,1.6-1.6,2.8-3.2,2.9l-14.8,1.6c-1.3,0.1-2.5,1-3,2.2l-6.1,13.7c-0.7,1.5-2.2,2.4-3.8,2.2l-14.8-1.5
		c-1.3-0.1-2.6,0.4-3.4,1.5l-8.8,12.1c-0.9,1.3-2.6,1.9-4.2,1.4l-14.1-4.6c-1.3-0.4-2.6-0.1-3.6,0.8l-11.1,10
		c-1.2,1.1-3,1.3-4.4,0.5l-12.9-7.4c-1.2-0.7-2.6-0.7-3.7,0l-12.9,7.4c-1.4,0.8-3.2,0.6-4.4-0.5l-11.1-10c-1-0.9-2.4-1.2-3.6-0.8
		l-14.1,4.6c-1.5,0.5-3.2-0.1-4.2-1.4l-8.8-12.1c-0.8-1.1-2.1-1.7-3.4-1.5l-14.8,1.5c-1.6,0.2-3.1-0.7-3.8-2.2l-6.1-13.7
		c-0.5-1.2-1.7-2.1-3-2.2l-14.8-1.6c-1.6-0.2-2.9-1.4-3.2-2.9l-3.2-14.6c-0.3-1.3-1.2-2.4-2.5-2.8L56.9,261
		c-1.5-0.5-2.6-1.9-2.6-3.6l-0.1-15c0-1.3-0.7-2.6-1.9-3.2l-12.8-7.6c-1.4-0.8-2.1-2.4-1.8-4l3-14.7c0.3-1.3-0.2-2.6-1.1-3.6
		l-11-10.1c-1.2-1.1-1.6-2.8-0.9-4.3l6-13.7c0.5-1.2,0.4-2.6-0.4-3.7l-8.7-12.2c-0.9-1.3-0.9-3.1,0-4.4l8.7-12.2
		c0.8-1.1,0.9-2.5,0.4-3.7l-6-13.7c-0.6-1.5-0.3-3.2,0.9-4.3l11-10.1c1-0.9,1.4-2.2,1.1-3.5l-3-14.7c-0.3-1.6,0.4-3.2,1.8-4
		l12.8-7.6c1.1-0.7,1.8-1.9,1.9-3.2l0.1-15c0-1.6,1-3,2.6-3.6L71,60.7c1.3-0.4,2.2-1.5,2.5-2.8l3.2-14.6c0.3-1.6,1.6-2.8,3.2-2.9
		l14.8-1.6c1.3-0.1,2.5-1,3-2.2l6.1-13.7c0.7-1.5,2.2-2.4,3.8-2.2l14.8,1.5c1.3,0.1,2.6-0.4,3.4-1.5l8.8-12.1
		c0.9-1.3,2.6-1.9,4.2-1.4l14.1,4.6c1.3,0.4,2.6,0.1,3.6-0.8l11.1-10c1.2-1.1,3-1.3,4.4-0.5l12.9,7.4c1.1,0.7,2.6,0.7,3.7,0
		L201.3,0.5z"/>
</g>
<g id="Group_50" transform="translate(467.898 3392.412)">
	<g id="Ellipse_7">
		<circle class="st1" cx="-280.9" cy="-3229.4" r="122"/>
	</g>
	<g id="Ellipse_8" transform="translate(0.102 -0.412)">
		<g>
			<ellipse class="st2" cx="-281.5" cy="-3228.5" rx="135.5" ry="136.5"/>
		</g>
		<g>
			<path class="st1" d="M-281.5-3092c-74.7,0-135.5-61.2-135.5-136.5c0-75.3,60.8-136.5,135.5-136.5s135.5,61.2,135.5,136.5
				C-146-3153.2-206.8-3092-281.5-3092z M-281.5-3357c-70.3,0-127.5,57.6-127.5,128.5c0,70.9,57.2,128.5,127.5,128.5
				s127.5-57.6,127.5-128.5C-154-3299.4-211.2-3357-281.5-3357z"/>
		</g>
	</g>
</g>
<g class="st3">
	<path class="st4" d="M86.8,137v-2.7l3-0.5l2.7-20.5l-3.4-0.6v-2.6h11.9l4.2,16.4l0.6,3.2l0.4-3.2l3.8-16.4H122v2.6l-3.8,0.5
		l3.1,20.5l3,0.5v2.7H112v-2.7l2.9-0.5l-1.6-15.2l-0.7-6.4l-1.1,5.7l-4.6,19.3h-4.6l-5.5-18.8l-1.5-6l-0.2,6.3l-1.4,15.2l3.6,0.5
		v2.7H86.8z"/>
	<path class="st4" d="M126.3,131.6c0-0.9,0.2-1.6,0.5-2.3s0.7-1.3,1.3-1.8s1.2-0.9,1.9-1.3s1.5-0.7,2.4-0.9s1.7-0.4,2.7-0.5
		s1.9-0.2,2.8-0.2v-0.8c0-1.2-0.3-2-0.8-2.6s-1.4-0.8-2.5-0.8c-0.6,0-1.3,0-1.9,0.1s-1.3,0.2-1.8,0.4s-1.1,0.3-1.6,0.5
		s-0.9,0.3-1.3,0.5h0l-1.2-2.7c0.3-0.2,0.7-0.5,1.3-0.8s1.3-0.6,2.2-0.9s1.8-0.6,2.8-0.8s2.1-0.3,3.3-0.3c1.3,0,2.5,0.1,3.4,0.4
		s1.7,0.7,2.3,1.3s1,1.3,1.3,2.2s0.4,1.9,0.4,3.1v10.7h2.2v2.4c-0.2,0-0.5,0.1-0.8,0.2s-0.7,0.1-1.1,0.2s-0.9,0.1-1.4,0.2
		s-1.1,0.1-1.6,0.1c-0.5,0-0.9,0-1.2-0.1s-0.6-0.1-0.8-0.3s-0.3-0.3-0.4-0.6s-0.1-0.6-0.1-1v-1.2c-0.2,0.3-0.5,0.7-0.9,1
		s-0.8,0.7-1.3,1s-1.1,0.5-1.7,0.7s-1.3,0.3-2.1,0.3c-0.8,0-1.6-0.1-2.4-0.3s-1.4-0.6-1.9-1s-1-1.1-1.3-1.8S126.3,132.6,126.3,131.6
		z M135,133.6c0.2,0,0.4,0,0.6-0.1s0.5-0.1,0.7-0.2s0.5-0.2,0.7-0.3s0.4-0.3,0.6-0.5V127c-1,0-1.8,0.1-2.5,0.3s-1.2,0.5-1.6,0.8
		s-0.7,0.7-0.9,1.1s-0.3,0.9-0.3,1.4c0,0.9,0.2,1.6,0.6,2.2S134.1,133.6,135,133.6z"/>
	<path class="st4" d="M147.7,137v-2.2l2-0.4l5.2-7.6l-5-7l-1.8-0.5v-2.4h11.2v2.4l-2.2,0.5l2.2,3.2l1.2,2l0.8-1.8l2.4-3.3l-2.2-0.5
		v-2.4h7.6v2.4l-2,0.5l-4.8,7.1l5.5,7.5l1.8,0.4v2.2h-11.2v-2.2l2.1-0.4l-2.6-4l-1-1.7l-0.8,1.9l-2.4,3.8l2.3,0.4v2.2H147.7z"/>
	<path class="st4" d="M172.2,137v-2.6l2.4-0.4v-13l-2.3-0.7v-2.9l7-0.9h0.1l1.4,0.8V134l2.4,0.4v2.6H172.2z M177.1,113.7
		c-0.4,0-0.8-0.1-1.2-0.2s-0.6-0.4-0.9-0.7s-0.4-0.6-0.5-1s-0.2-0.8-0.2-1.2c0-0.5,0.1-1,0.2-1.4s0.3-0.8,0.6-1.1s0.6-0.6,1-0.8
		s0.9-0.3,1.4-0.3h0c0.5,0,1,0.1,1.4,0.2s0.7,0.4,0.9,0.7s0.4,0.6,0.5,1s0.2,0.8,0.2,1.2c0,0.5-0.1,1-0.2,1.4s-0.3,0.8-0.6,1.1
		s-0.7,0.6-1.1,0.8S177.7,113.7,177.1,113.7L177.1,113.7z"/>
	<path class="st4" d="M186.7,137v-2.5l2.2-0.5v-13l-2.3-0.7v-3l6.8-0.9h0.1l1,0.8v1.2l0,0.8c0.4-0.4,0.9-0.7,1.4-1.1
		s1.2-0.6,1.8-0.9s1.3-0.5,2-0.6s1.3-0.2,1.9-0.2c1.4,0,2.4,0.2,3.3,0.7s1.4,1.1,1.8,2.1c0.3-0.3,0.8-0.6,1.3-0.9s1.1-0.6,1.7-0.9
		s1.3-0.5,2-0.7s1.4-0.3,2.2-0.3c1.1,0,2,0.1,2.7,0.4s1.3,0.7,1.8,1.3s0.8,1.4,1,2.4s0.3,2.2,0.3,3.6v9.7l2.4,0.5v2.5h-10.3v-2.5
		l1.7-0.5v-9.5c0-0.9,0-1.6-0.1-2.2s-0.3-1-0.5-1.4s-0.5-0.6-0.8-0.7s-0.8-0.2-1.2-0.2c-0.3,0-0.5,0-0.9,0.1s-0.6,0.2-1,0.3
		s-0.6,0.2-0.9,0.4s-0.6,0.3-0.8,0.4c0.1,0.9,0.2,1.9,0.2,3.1v9.7l2.2,0.5v2.5h-10.4v-2.5l2-0.4v-9.8c0-0.8,0-1.4-0.1-1.9
		s-0.2-1-0.5-1.3s-0.5-0.6-0.9-0.7s-0.8-0.2-1.3-0.2c-0.3,0-0.6,0-1,0.1s-0.7,0.2-1,0.3s-0.6,0.2-0.9,0.4s-0.5,0.3-0.6,0.4V134
		l2.4,0.5v2.5H186.7z"/>
	<path class="st4" d="M241.8,137.4c-0.9,0-1.6-0.2-2-0.7s-0.6-1-0.6-1.7v-0.6c-0.3,0.4-0.6,0.8-1.1,1.1s-0.9,0.7-1.5,1
		s-1.1,0.5-1.7,0.7s-1.2,0.2-1.8,0.2c-1.2,0-2.2-0.1-3-0.4s-1.5-0.7-2.1-1.3s-0.9-1.4-1.2-2.3s-0.4-2.1-0.4-3.5v-10l-1.6-0.6V117
		l7-0.5h0l0.8,0.5v13.1c0,1.3,0.2,2.3,0.6,2.9s1.1,0.9,2.1,0.9c0.4,0,0.8,0,1.1-0.1s0.6-0.2,0.9-0.3s0.5-0.2,0.7-0.4
		s0.3-0.2,0.4-0.3v-12.9l-2.4-0.7v-2.3l7.6-0.4h0l0.9,0.5v17.4h1.9v2.4c-0.2,0-0.5,0.1-0.8,0.2s-0.7,0.1-1.1,0.2s-0.9,0.1-1.3,0.2
		S242.3,137.4,241.8,137.4z"/>
	<path class="st4" d="M250.3,137v-2.5l2.2-0.5v-13l-2.3-0.7v-3l6.8-0.9h0.1l1,0.8v1.2l0,0.8c0.4-0.4,0.9-0.7,1.4-1.1
		s1.2-0.6,1.8-0.9s1.3-0.5,2-0.6s1.3-0.2,1.9-0.2c1.4,0,2.4,0.2,3.3,0.7s1.4,1.1,1.8,2.1c0.3-0.3,0.8-0.6,1.3-0.9s1.1-0.6,1.7-0.9
		s1.3-0.5,2-0.7s1.4-0.3,2.2-0.3c1.1,0,2,0.1,2.7,0.4s1.3,0.7,1.8,1.3s0.8,1.4,1,2.4s0.3,2.2,0.3,3.6v9.7l2.4,0.5v2.5h-10.3v-2.5
		l1.7-0.5v-9.5c0-0.9,0-1.6-0.1-2.2s-0.3-1-0.5-1.4s-0.5-0.6-0.8-0.7s-0.8-0.2-1.2-0.2c-0.3,0-0.5,0-0.9,0.1s-0.6,0.2-1,0.3
		s-0.6,0.2-0.9,0.4s-0.6,0.3-0.8,0.4c0.1,0.9,0.2,1.9,0.2,3.1v9.7l2.2,0.5v2.5h-10.4v-2.5l2-0.4v-9.8c0-0.8,0-1.4-0.1-1.9
		s-0.2-1-0.5-1.3s-0.5-0.6-0.9-0.7s-0.8-0.2-1.3-0.2c-0.3,0-0.6,0-1,0.1s-0.7,0.2-1,0.3s-0.6,0.2-0.9,0.4s-0.5,0.3-0.6,0.4V134
		l2.4,0.5v2.5H250.3z"/>
</g>
<g class="st3">
	<path class="st4" d="M118.4,188v-2.7l2.8-0.5v-20.5l-2.8-0.6v-2.6h5.8c0.6,0,1.1,0,1.6,0s0.9,0,1.4-0.1s1,0,1.5-0.1s1.2,0,1.9,0
		c1.8,0,3.4,0.1,4.6,0.4s2.3,0.7,3,1.3s1.3,1.3,1.7,2.2s0.5,1.9,0.5,3c0,0.7-0.1,1.5-0.3,2.3s-0.5,1.5-0.9,2.2s-0.9,1.3-1.6,1.8
		s-1.5,0.9-2.4,1.1c0.7,0.2,1.3,0.6,1.8,1.2s1,1.2,1.4,1.8s0.8,1.4,1.1,2.1s0.6,1.4,0.9,2s0.5,1.1,0.8,1.6s0.6,0.7,0.9,0.8l1.5,0.5
		v2.7h-7.2c-0.3,0-0.6-0.2-0.9-0.7s-0.6-1.1-0.9-1.9s-0.6-1.6-0.9-2.5s-0.7-1.8-1-2.7s-0.7-1.6-1.1-2.3s-0.8-1.1-1.2-1.4
		c-0.3,0-0.6,0-0.9,0s-0.6,0-0.9,0s-0.5,0-0.7,0s-0.4,0-0.5,0v8.5l2.9,0.5v2.7H118.4z M127.5,173.8c0.1,0,0.3,0.1,0.5,0.1
		s0.4,0,0.7,0s0.5,0,0.7,0s0.4,0,0.6,0c1.3,0,2.3-0.5,3-1.4s1.1-2.4,1.1-4.3c0-1.6-0.4-2.8-1.1-3.5s-1.9-1.1-3.4-1.1
		c-0.6,0-1.1,0-1.3,0.1s-0.5,0.1-0.7,0.1V173.8z"/>
	<path class="st4" d="M155,188.4c-1.7,0-3.2-0.3-4.4-0.8s-2.2-1.2-3-2.2s-1.3-2-1.7-3.3s-0.5-2.7-0.5-4.2c0-1.7,0.2-3.2,0.7-4.5
		s1.1-2.4,2-3.3s1.9-1.6,3.1-2s2.5-0.7,4-0.7c2.6,0,4.5,0.6,5.8,1.7s2,3,2.1,5.4c0,0.8,0,1.6,0,2.3s-0.1,1.3-0.2,1.7h-11.1
		c0.1,1.1,0.2,2,0.5,2.7s0.6,1.3,1,1.8s0.9,0.8,1.5,1s1.2,0.3,2,0.3c0.6,0,1.2,0,1.7-0.1s1-0.2,1.4-0.3s0.8-0.3,1.1-0.4
		s0.6-0.3,0.9-0.5l1,2.3c-0.3,0.3-0.7,0.6-1.2,1s-1.1,0.7-1.8,1s-1.4,0.6-2.3,0.8S155.9,188.4,155,188.4z M154.5,170
		c-0.4,0-0.7,0.1-1.1,0.2s-0.6,0.4-0.9,0.9s-0.5,1.1-0.7,1.9s-0.3,1.9-0.3,3.2h5.3c0,0,0-0.1,0-0.2s0-0.2,0-0.3s0-0.2,0-0.3
		s0-0.2,0-0.2c0-0.6,0-1.2-0.1-1.8s-0.2-1.2-0.3-1.7s-0.4-0.9-0.7-1.2S155.1,170,154.5,170z"/>
	<path class="st4" d="M166.4,188v-2.5l2.8-0.5v-13.7h-2.9v-2.3l2.9-0.9v-0.7c0-1,0.1-1.9,0.4-2.8s0.7-1.6,1.2-2.3s1.1-1.3,1.7-1.9
		s1.3-1,2.1-1.4s1.5-0.7,2.3-0.8s1.5-0.3,2.3-0.3c0.6,0,1.1,0,1.4,0.1s0.5,0.1,0.7,0.2v5.9c-0.2-0.2-0.4-0.4-0.7-0.6s-0.7-0.4-1-0.5
		s-0.8-0.3-1.2-0.3s-0.8-0.1-1.2-0.1c-0.5,0-0.8,0.1-1.1,0.4s-0.4,0.8-0.4,1.5l0,3.6h4.4v3.2h-4.4V185l4,0.4v2.5H166.4z"/>
	<path class="st4" d="M199.5,188.4c-0.9,0-1.6-0.2-2-0.7s-0.6-1-0.6-1.7v-0.6c-0.3,0.4-0.6,0.8-1.1,1.1s-0.9,0.7-1.5,1
		s-1.1,0.5-1.7,0.7s-1.2,0.2-1.8,0.2c-1.2,0-2.2-0.1-3-0.4s-1.5-0.7-2.1-1.3s-0.9-1.4-1.2-2.3s-0.4-2.1-0.4-3.5v-10l-1.6-0.6V168
		l7-0.5h0l0.8,0.5v13.1c0,1.3,0.2,2.3,0.6,2.9s1.1,0.9,2.1,0.9c0.4,0,0.8,0,1.1-0.1s0.6-0.2,0.9-0.3s0.5-0.2,0.7-0.4
		s0.3-0.2,0.4-0.3v-12.9l-2.4-0.7v-2.3l7.6-0.4h0l0.9,0.5v17.4h1.9v2.4c-0.2,0-0.5,0.1-0.8,0.2s-0.7,0.1-1.1,0.2s-0.9,0.1-1.3,0.2
		S200,188.4,199.5,188.4z"/>
	<path class="st4" d="M207.9,188v-2.6l2.2-0.4v-13l-2.3-0.7v-3l6.9-0.9h0.1l1,0.8v2.1c0.4-0.4,0.8-0.7,1.3-1s1.1-0.6,1.7-0.9
		s1.2-0.5,1.9-0.6s1.4-0.2,2.1-0.2c1.1,0,2,0.1,2.8,0.4s1.4,0.7,1.8,1.4s0.8,1.4,1,2.4s0.3,2.2,0.3,3.6v9.7l2.5,0.4v2.6h-10.4v-2.6
		l1.7-0.4v-9.8c0-0.8,0-1.4-0.1-1.9s-0.2-1-0.4-1.3s-0.5-0.6-0.8-0.7s-0.8-0.2-1.3-0.2c-0.4,0-0.7,0-1.1,0.1s-0.7,0.2-1,0.3
		s-0.6,0.3-0.8,0.4s-0.4,0.3-0.6,0.4V185l2.3,0.4v2.6H207.9z"/>
	<path class="st4" d="M241.6,188.4c-1.1,0-2.1-0.2-3.1-0.6s-1.8-1-2.4-1.8s-1.2-1.8-1.6-3.1s-0.6-2.7-0.6-4.4c0-1.6,0.2-3.1,0.7-4.5
		s1.2-2.5,2.1-3.5s2-1.7,3.3-2.3s2.8-0.8,4.4-0.8c0.4,0,0.9,0,1.3,0.1s0.8,0.1,1.2,0.2v-5.7l-3.1-0.7v-2.2l7.9-0.8h0.1l1.2,0.9v26
		h1.9v2.4c-0.6,0.1-1.3,0.3-2.1,0.4s-1.7,0.2-2.7,0.2c-0.8,0-1.4-0.2-1.8-0.5s-0.6-1-0.6-1.8v-0.7c-0.3,0.4-0.6,0.8-1,1.2
		s-0.9,0.7-1.4,1s-1.1,0.5-1.7,0.7S242.3,188.4,241.6,188.4z M244.1,184.9c0.6,0,1.1-0.1,1.6-0.3s0.9-0.5,1.1-0.7v-13.2
		c-0.2-0.2-0.5-0.3-0.9-0.5s-0.8-0.2-1.3-0.2c-0.6,0-1.1,0.1-1.6,0.4s-0.9,0.7-1.3,1.3s-0.7,1.4-0.9,2.4s-0.3,2.2-0.4,3.7
		c0,1.3,0.1,2.4,0.2,3.3s0.4,1.6,0.7,2.2s0.7,1,1.1,1.2S243.5,184.9,244.1,184.9z"/>
</g>
<g class="st3">
	<path class="st4" d="M129.4,227.3h4.6v6.7c0,3.4-1.7,5.3-4.9,5.3c-3.2,0-4.9-1.9-4.9-5.3V223c0-3.4,1.7-5.3,4.9-5.3
		c3.2,0,4.9,1.9,4.9,5.3v2h-3.1v-2.2c0-1.5-0.7-2.1-1.7-2.1c-1.1,0-1.7,0.6-1.7,2.1v11.3c0,1.5,0.7,2,1.7,2c1,0,1.7-0.5,1.7-2v-3.9
		h-1.5V227.3z"/>
	<path class="st4" d="M140.2,218v16.2c0,1.5,0.7,2,1.7,2c1.1,0,1.7-0.5,1.7-2V218h3.1v16c0,3.4-1.7,5.3-4.9,5.3s-4.9-1.9-4.9-5.3
		v-16H140.2z"/>
	<path class="st4" d="M160.7,239h-3.3l-0.6-3.8h-4l-0.6,3.8h-3l3.4-21h4.8L160.7,239z M153.1,232.3h3.2l-1.6-10.6h-0.1L153.1,232.3z
		"/>
	<path class="st4" d="M170,239c-0.2-0.5-0.3-0.9-0.3-2.6v-3.3c0-2-0.7-2.7-2.2-2.7h-1.1v8.5h-3.3v-21h5c3.4,0,4.9,1.6,4.9,4.8v1.6
		c0,2.2-0.7,3.5-2.2,4.2v0.1c1.6,0.7,2.2,2.3,2.2,4.4v3.2c0,1,0,1.8,0.4,2.5H170z M166.4,221v6.4h1.3c1.2,0,2-0.5,2-2.2v-2.1
		c0-1.5-0.5-2.2-1.7-2.2H166.4z"/>
	<path class="st4" d="M186.8,239h-3.3l-0.6-3.8h-4l-0.6,3.8h-3l3.4-21h4.8L186.8,239z M179.3,232.3h3.2l-1.6-10.6h-0.1L179.3,232.3z
		"/>
	<path class="st4" d="M192.3,223.8L192.3,223.8l-0.1,15.2h-3v-21h4.1l3.3,12.6h0.1V218h2.9v21h-3.4L192.3,223.8z"/>
	<path class="st4" d="M202.1,218h10.2v3h-3.5v18h-3.3v-18h-3.5V218z"/>
	<path class="st4" d="M218,226.9h4.5v3H218v6.1h5.7v3h-9v-21h9v3H218V226.9z"/>
	<path class="st4" d="M230,226.9h4.5v3H230v6.1h5.7v3h-9v-21h9v3H230V226.9z"/>
	<path class="st4" d="M238.7,218h5.2c3.3,0,4.9,1.8,4.9,5.2v10.6c0,3.4-1.6,5.2-4.9,5.2h-5.2V218z M242,221v15h1.9
		c1,0,1.7-0.5,1.7-2V223c0-1.5-0.6-2-1.7-2H242z"/>
</g>
</svg>
