<svg id="info-icon" xmlns="http://www.w3.org/2000/svg" width="43.232" height="43.232" viewBox="0 0 43.232 43.232">
  <text id="i" transform="translate(16 32)" fill="#02308a" font-size="30" font-family="OpenSans-Extrabold, Open Sans" font-weight="800" letter-spacing="0.04em"><tspan x="0" y="0">i</tspan></text>
  <g id="_2" data-name="2">
    <path id="Path_203" data-name="Path 203" d="M21.616,43.232a21.614,21.614,0,1,1,16.529-7.684,21.843,21.843,0,0,1-2.551,2.557,21.623,21.623,0,0,1-13.978,5.127Zm0-40.53a18.915,18.915,0,0,0-14.464,31.1,19.135,19.135,0,0,0,2.233,2.239,18.916,18.916,0,0,0,24.46,0,19.134,19.134,0,0,0,2.234-2.24A18.915,18.915,0,0,0,21.616,2.7Z" transform="translate(0 0)" fill="#02308a"/>
  </g>
</svg>
