<svg xmlns="http://www.w3.org/2000/svg" width="263.86" height="346.4" viewBox="0 0 263.86 346.4">
  <g id="Proctection" transform="translate(-765 -2401)">
    <g id="Group_197" data-name="Group 197">
      <g id="shield_1_" data-name="shield (1)" transform="translate(765 2401)">
        <path id="Path_19" data-name="Path 19" d="M248.922,39.7c-25.244,0-60.513-2.735-85.173-15.751-13.436-7.1-17.673-14.173-18.132-15.006A14.97,14.97,0,0,0,132.172,0h-.3A15.013,15.013,0,0,0,118.2,8.877C117.323,10.426,99.555,39.7,14.937,39.7A14.944,14.944,0,0,0,0,54.606V216.122c0,71.626,113.012,123.37,125.941,129.054a15.23,15.23,0,0,0,12.03-.029A370.649,370.649,0,0,0,201.589,308.4c41.318-30.033,62.27-61.081,62.27-92.282V54.524a14.985,14.985,0,0,0-14.937-14.829Zm0,0" transform="translate(0 0)" fill="#fcff47"/>
        <path id="Path_20" data-name="Path 20" d="M326.93,54.524v161.6c0,31.2-20.952,62.249-62.27,92.282a370.649,370.649,0,0,1-63.618,36.743A14.7,14.7,0,0,1,195,346.4V0h.243a14.97,14.97,0,0,1,13.444,8.938c.46.832,4.7,7.907,18.132,15.006C251.48,36.96,286.748,39.7,311.993,39.7A14.985,14.985,0,0,1,326.93,54.524Zm0,0" transform="translate(-63.07 0)" fill="#dbdd3c"/>
        <path id="Path_21" data-name="Path 21" d="M244.829,121.362V240.017c0,22.887-15.1,45.464-44.875,67.109a263.532,263.532,0,0,1-45.134,26.066,13.731,13.731,0,0,1-10.859.034,268.133,268.133,0,0,1-45.187-26.1C68.991,285.482,53.89,262.9,53.89,240.017V121.441A13.513,13.513,0,0,1,65.77,108.053a352.56,352.56,0,0,1,167.185,0,13.559,13.559,0,0,1,11.874,13.309Zm0,0" transform="translate(-17.43 -31.697)" fill="#fff"/>
        <path id="Path_22" data-name="Path 22" d="M290.469,121.362V240.017c0,22.887-15.1,45.464-44.875,67.109a263.532,263.532,0,0,1-45.134,26.066,13.409,13.409,0,0,1-5.46,1.136V98a351.436,351.436,0,0,1,83.6,10.053,13.559,13.559,0,0,1,11.874,13.309Zm0,0" transform="translate(-63.07 -31.697)" fill="#fff"/>
        <path id="Path_23" data-name="Path 23" d="M209.18,216.652A27.148,27.148,0,0,1,197.47,239a.613.613,0,0,0-.272.507l-.412,25.215a14.776,14.776,0,0,1-29.552,0l.074-24.872a.624.624,0,0,0-.283-.529,27.172,27.172,0,0,1,13.922-49.82c.359-.016.711-.021,1.062-.021a27.166,27.166,0,0,1,27.171,27.171Zm0,0" transform="translate(-50.08 -61.285)" fill="#fcff47"/>
        <path id="Path_24" data-name="Path 24" d="M222.171,216.652A27.148,27.148,0,0,1,210.46,239a.613.613,0,0,0-.272.507l-.412,25.215A14.772,14.772,0,0,1,195,279.49V189.481a27.166,27.166,0,0,1,27.171,27.171Zm0,0" transform="translate(-63.07 -61.285)" fill="#dee142"/>
      </g>
    </g>
  </g>
</svg>
