<svg xmlns="http://www.w3.org/2000/svg" width="45.821" height="37.216" viewBox="0 0 45.821 37.216">
  <g id="twittericon" transform="translate(-1567.277 -4303.825)">
    <path id="Path_32" data-name="Path 32" d="M1593.11,4312.28c.029.407.029.814.029,1.22,0,12.415-9.449,26.72-26.719,26.72a26.54,26.54,0,0,1-14.421-4.215,19.6,19.6,0,0,0,2.268.115,18.813,18.813,0,0,0,11.659-4.011,9.41,9.41,0,0,1-8.781-6.513,11.756,11.756,0,0,0,1.774.146,9.947,9.947,0,0,0,2.471-.321,9.391,9.391,0,0,1-7.53-9.216v-.116a9.461,9.461,0,0,0,4.245,1.191,9.406,9.406,0,0,1-2.907-12.56,26.692,26.692,0,0,0,19.363,9.827,10.63,10.63,0,0,1-.233-2.151,9.4,9.4,0,0,1,16.252-6.426,18.485,18.485,0,0,0,5.961-2.267,9.376,9.376,0,0,1-4.129,5.175,18.857,18.857,0,0,0,5.408-1.454A20.193,20.193,0,0,1,1593.11,4312.28Z" transform="translate(15.277 0.82)" fill="#273a86"/>
  </g>
</svg>
