<svg xmlns="http://www.w3.org/2000/svg" width="40.093" height="40.093" viewBox="0 0 40.093 40.093">
  <g id="linkedinicon" transform="translate(-1753.106 -4302.864)">
    <path id="Path_34" data-name="Path 34" d="M1732.392,4336.615h-5.943v-9.307c0-2.221-.044-5.074-3.086-5.074-3.1,0-3.572,2.416-3.572,4.913v9.468h-5.943v-19.134h5.7v2.613h.08a6.261,6.261,0,0,1,5.63-3.088c6.014,0,7.133,3.965,7.133,9.119Zm-25.246-21.747a3.445,3.445,0,1,1,3.445-3.445A3.447,3.447,0,0,1,1707.146,4314.868Zm2.971,21.747h-5.943v-19.134h5.952v19.134Zm25.112-34.365h-34.375a2.875,2.875,0,0,0-2.855,2.891v34.313a2.876,2.876,0,0,0,2.855,2.89h34.375a2.884,2.884,0,0,0,2.864-2.89v-34.312A2.884,2.884,0,0,0,1735.229,4302.25Z" transform="translate(55.106 0.614)" fill="#273a86"/>
  </g>
</svg>
