<svg xmlns="http://www.w3.org/2000/svg" width="18.667" height="15.529" viewBox="0 0 18.667 15.529">
  <g id="right-arrow" transform="translate(0 -41.346)">
    <g id="Group_27" data-name="Group 27" transform="translate(0 41.346)">
      <path id="Path_15" data-name="Path 15" d="M18.368,48.385l-6.741-6.741a1.025,1.025,0,0,0-1.445,0l-.612.612a1.014,1.014,0,0,0-.3.722,1.034,1.034,0,0,0,.3.731L13.5,47.651H1.008a1,1,0,0,0-1.008,1v.865A1.035,1.035,0,0,0,1.008,50.57H13.547L9.57,54.533a1.012,1.012,0,0,0,0,1.435l.612.61a1.025,1.025,0,0,0,1.445,0l6.741-6.741a1.03,1.03,0,0,0,0-1.45Z" transform="translate(0 -41.346)" fill="#fff"/>
    </g>
  </g>
</svg>
