<svg xmlns="http://www.w3.org/2000/svg" width="17.344" height="20.608" viewBox="0 0 17.344 20.608">
  <g id="shield" transform="translate(-33.908)">
    <g id="Group_7" data-name="Group 7" transform="translate(33.908 0)">
      <g id="Group_6" data-name="Group 6" transform="translate(0)">
        <path id="Path_5" data-name="Path 5" d="M51.23,5.3c-.025-.542-.025-1.06-.025-1.577a.726.726,0,0,0-.739-.739A9.9,9.9,0,0,1,43.1.2a.76.76,0,0,0-1.035,0,9.9,9.9,0,0,1-7.369,2.785.726.726,0,0,0-.739.739c0,.518,0,1.035-.025,1.577-.1,5.175-.246,12.273,8.4,15.255l.246.049.246-.049C51.452,17.577,51.329,10.5,51.23,5.3Zm-9.241,7.171a.8.8,0,0,1-.518.2h-.025a.694.694,0,0,1-.518-.246L38.637,9.888,39.746,8.9l1.8,2,3.992-3.8,1.01,1.084Z" transform="translate(-33.908 0)" fill="#ff1717"/>
      </g>
    </g>
  </g>
</svg>
