<svg id="user" xmlns="http://www.w3.org/2000/svg" width="32.155" height="32.192" viewBox="0 0 32.155 32.192">
  <g id="Group_29" data-name="Group 29" transform="translate(0 0)">
    <path id="Path_16" data-name="Path 16" d="M16.376,0A16.078,16.078,0,0,0,5.219,27.681c.009.009.013.023.022.031.093.09.194.165.288.252.258.23.517.467.789.689.146.115.3.23.447.335.257.192.514.384.783.56.183.115.371.23.558.345.248.149.495.3.751.436.217.115.439.214.659.318.241.115.479.23.726.333s.495.184.745.273.466.172.706.246c.271.082.549.145.825.212.23.056.452.121.689.167.317.063.639.1.96.147.2.028.393.067.594.086.526.052,1.057.08,1.592.08s1.066-.029,1.592-.08c.2-.02.4-.059.594-.086.322-.044.643-.084.96-.147.23-.046.459-.115.689-.167.276-.068.554-.131.825-.212.24-.073.472-.163.706-.246s.5-.172.745-.273.485-.219.726-.333c.221-.1.442-.2.659-.318.256-.137.5-.287.751-.436.187-.115.376-.219.558-.345.269-.177.526-.369.783-.56.149-.115.3-.218.447-.335.272-.218.531-.45.789-.689.094-.086.2-.162.288-.252.009-.008.013-.022.022-.031A16.084,16.084,0,0,0,16.376,0Zm11.2,24.071a11.542,11.542,0,0,0-6.149-7.916,6.89,6.89,0,1,0-10.152,0,11.541,11.541,0,0,0-6.149,7.916,13.781,13.781,0,1,1,22.449,0Z" transform="translate(-0.271 0)" fill="#273a86"/>
  </g>
</svg>
