<svg xmlns="http://www.w3.org/2000/svg" width="201.826" height="163" viewBox="0 0 201.826 163">
  <g id="biglifeicon" transform="translate(-859 -4212)">
    <path id="Path_29" data-name="Path 29" d="M931.322,3900.593c9.69-5.754,21.738-10.13,35-12.8a57.555,57.555,0,0,1-7.094-9.395,54.241,54.241,0,0,1-8.146-28c0-13.7,0-26.632,5.361-37.21,5.2-10.268,14.563-16.634,27.9-19.021-2.964-12.174-10.853-20.176-31.855-20.176-33.638,0-33.638,20.525-33.638,45.844,0,15.768,10.074,31.535,22.425,37.857v8.4C903.239,3868.921,874,3885.9,874,3906.43H922.88A71.422,71.422,0,0,1,931.322,3900.593Zm77.227-3.935v-8.4c12.351-6.324,22.425-22.091,22.425-37.859,0-25.319,0-45.844-33.638-45.844S963.7,3825.079,963.7,3850.4c0,15.768,10.073,31.534,22.424,37.859v8.4c-38.035,2.825-67.275,19.805-67.275,40.334h156.976C1075.825,3916.464,1046.585,3899.484,1008.549,3896.658Z" transform="translate(-14.999 438.007)" fill="#4f9aff"/>
  </g>
</svg>
