<?xml version="1.0" encoding="utf-8"?>
<!-- Generator: Adobe Illustrator 25.0.1, SVG Export Plug-In . SVG Version: 6.00 Build 0)  -->
<svg version="1.1" id="guidanceicon" xmlns="http://www.w3.org/2000/svg" xmlns:xlink="http://www.w3.org/1999/xlink" x="0px"
	 y="0px" viewBox="0 0 350 323.5" style="enable-background:new 0 0 350 323.5;" xml:space="preserve">
<style type="text/css">
	.st0{fill:#4F99FE;}
</style>
<g>
	<path class="st0" d="M104.5,263.6c0-14.1,8.8-22.9,19.3-30.2c17.8-12.4,38.3-17,59.5-19.6c2-0.3,5.3,1,5.3-2.6
		c-0.1-3.3,1.9-7.1-2-9.7c-19-12.3-26.6-30.1-25.8-52.1c0.3-7.5,0-14.9,1.4-22.4c2.8-15.6,10.5-24,25.9-27.3
		c9.1-1.9,18.4-1.9,27.5-0.4c16.8,2.7,24.5,10,27.7,26.9c2.4,12.7,3.2,25.6,0.9,38.4c-2.7,14.8-10,26.9-22.7,35.2
		c-4.9,3.2-4.2,7.1-4.1,11.3c0.1,3.2,2.8,2.5,4.7,2.7c16.7,2,32.9,5.4,48.2,12.8c14.8,7.2,26.7,16.9,31.5,33.3
		c1.1,4.2-1.6,3.8-4.4,3.8C233.1,263.6,168.8,263.6,104.5,263.6z"/>
	<path class="st0" d="M48,218.6c11.3-25.6,34.6-33.8,59.2-39.9c6-1.5,12.4-1.8,18.5-3.1c2.2-0.5,6.2,1,6.5-3
		c0.2-3.7,1.3-7.5-3.2-10.4c-13.1-8.4-21.3-20.8-23.6-36c-2.2-14.6-2.2-29.5,2.1-43.9c3.1-10.5,10.2-17.5,21.2-20
		c13.7-3.1,27.3-3.7,40.7,1.6c8,3.2,13.1,9.3,16,17.4c1.2,3.3,0.4,4.2-2.9,5.1c-23,6.2-34.5,20.3-36.6,44
		c-1.6,17.9-2.6,35.7,5.2,52.7c3.1,6.8,7.7,12.7,12.4,19c-15.9,3.7-31.4,7.9-44.5,17.1c-8,5.6-15.9,6.9-25.1,6.7
		c-15.2-0.3-30.5,0.2-45.8,0.3C48,223.6,48,221.1,48,218.6z"/>
</g>
</svg>
