<?xml version="1.0" encoding="utf-8"?>
<!-- Generator: Adobe Illustrator 25.0.1, SVG Export Plug-In . SVG Version: 6.00 Build 0)  -->
<svg version="1.1" id="Layer_1" xmlns="http://www.w3.org/2000/svg" xmlns:xlink="http://www.w3.org/1999/xlink" x="0px" y="0px"
	 viewBox="0 0 373 326.4" style="enable-background:new 0 0 373 326.4;" xml:space="preserve">
<style type="text/css">
	.st0{fill:#B5CEFF;}
	.st1{fill:#FFFFFF;}
	.st2{fill:none;}
	.st3{enable-background:new    ;}
	.st4{fill:#3A3A3A;}
</style>
<g id="Circle3" transform="translate(-1349 -3365)">
	<g id="Path_27">
		<path class="st0" d="M1546.8,3365.5c1.4-0.8,3.2-0.6,4.4,0.5l11.1,10c1,0.9,2.4,1.2,3.6,0.8l14.1-4.6c1.5-0.5,3.2,0.1,4.2,1.4
			l8.8,12.1c0.8,1.1,2.1,1.7,3.4,1.5l14.8-1.5c1.6-0.2,3.1,0.7,3.8,2.2l6.1,13.7c0.5,1.2,1.7,2.1,3,2.2l14.8,1.6
			c1.6,0.2,2.9,1.4,3.2,2.9l3.2,14.6c0.3,1.3,1.2,2.4,2.5,2.8l14.1,4.7c1.5,0.5,2.6,1.9,2.6,3.6l0.1,15c0,1.3,0.7,2.6,1.9,3.2
			l12.8,7.6c1.4,0.8,2.1,2.4,1.8,4l-3,14.7c-0.3,1.3,0.2,2.6,1.1,3.5l11,10.1c1.2,1.1,1.6,2.8,0.9,4.3l-6,13.7
			c-0.5,1.2-0.4,2.6,0.4,3.7l8.7,12.2c0.9,1.3,0.9,3.1,0,4.4l-8.7,12.2c-0.8,1.1-0.9,2.5-0.4,3.7l6,13.7c0.6,1.5,0.3,3.2-0.9,4.3
			l-11,10.1c-1,0.9-1.4,2.2-1.1,3.6l3,14.7c0.3,1.6-0.4,3.2-1.8,4l-12.8,7.6c-1.1,0.7-1.8,1.9-1.9,3.2l-0.1,15c0,1.6-1,3-2.6,3.6
			l-14.1,4.7c-1.3,0.4-2.2,1.5-2.5,2.8l-3.2,14.6c-0.3,1.6-1.6,2.8-3.2,2.9l-14.8,1.6c-1.3,0.1-2.5,1-3,2.2l-6.1,13.7
			c-0.7,1.5-2.2,2.4-3.8,2.2l-14.8-1.5c-1.3-0.1-2.6,0.4-3.4,1.5l-8.8,12.1c-0.9,1.3-2.6,1.9-4.2,1.4l-14.1-4.6
			c-1.3-0.4-2.6-0.1-3.6,0.8l-11.1,10c-1.2,1.1-3,1.3-4.4,0.5l-12.9-7.4c-1.2-0.7-2.6-0.7-3.7,0l-12.9,7.4c-1.4,0.8-3.2,0.6-4.4-0.5
			l-11.1-10c-1-0.9-2.4-1.2-3.6-0.8l-14.1,4.6c-1.5,0.5-3.2-0.1-4.2-1.4l-8.8-12.1c-0.8-1.1-2.1-1.7-3.4-1.5l-14.8,1.5
			c-1.6,0.2-3.1-0.7-3.8-2.2l-6.1-13.7c-0.5-1.2-1.7-2.1-3-2.2l-14.8-1.6c-1.6-0.2-2.9-1.4-3.2-2.9l-3.2-14.6
			c-0.3-1.3-1.2-2.4-2.5-2.8l-14.1-4.7c-1.5-0.5-2.6-1.9-2.6-3.6l-0.1-15c0-1.3-0.7-2.6-1.9-3.2l-12.8-7.6c-1.4-0.8-2.1-2.4-1.8-4
			l3-14.7c0.3-1.3-0.2-2.6-1.1-3.6l-11-10.1c-1.2-1.1-1.6-2.8-0.9-4.3l6-13.7c0.5-1.2,0.4-2.6-0.4-3.7l-8.7-12.2
			c-0.9-1.3-0.9-3.1,0-4.4l8.7-12.2c0.8-1.1,0.9-2.5,0.4-3.7l-6-13.7c-0.6-1.5-0.3-3.2,0.9-4.3l11-10.1c1-0.9,1.4-2.2,1.1-3.5
			l-3-14.7c-0.3-1.6,0.4-3.2,1.8-4l12.8-7.6c1.1-0.7,1.8-1.9,1.9-3.2l0.1-15c0-1.6,1-3,2.6-3.6l14.1-4.7c1.3-0.4,2.2-1.5,2.5-2.8
			l3.2-14.6c0.3-1.6,1.6-2.8,3.2-2.9l14.8-1.6c1.3-0.1,2.5-1,3-2.2l6.1-13.7c0.7-1.5,2.2-2.4,3.8-2.2l14.8,1.5
			c1.3,0.1,2.6-0.4,3.4-1.5l8.8-12.1c0.9-1.3,2.6-1.9,4.2-1.4l14.1,4.6c1.3,0.4,2.6,0.1,3.6-0.8l11.1-10c1.2-1.1,3-1.3,4.4-0.5
			l12.9,7.4c1.1,0.7,2.6,0.7,3.7,0L1546.8,3365.5z"/>
	</g>
	<g id="Group_52" transform="translate(1395.625 3392.412)">
		<g id="Ellipse_7">
			<circle class="st1" cx="136.4" cy="135.6" r="122"/>
		</g>
		<g id="Ellipse_8" transform="translate(0.375 -0.412)">
			<g>
				<ellipse class="st2" cx="136" cy="136.5" rx="136" ry="136.5"/>
			</g>
			<g>
				<path class="st1" d="M136,273C61,273,0,211.8,0,136.5C0,61.2,61,0,136,0c75,0,136,61.2,136,136.5C272,211.8,211,273,136,273z
					 M136,8C65.4,8,8,65.6,8,136.5C8,207.4,65.4,265,136,265c70.6,0,128-57.6,128-128.5C264,65.6,206.6,8,136,8z"/>
			</g>
		</g>
	</g>
	<g id="Group_53" transform="translate(1348.51 3446.512)">
		<g class="st3">
			<path class="st4" d="M141.8,31.5v-2.1l3.4-0.4V16.6c-0.2,0-0.4,0.1-0.7,0.2c-0.3,0.1-0.6,0.1-0.9,0.2c-0.3,0.1-0.6,0.1-1,0.1
				c-0.3,0-0.6,0.1-0.8,0.1l-0.4-2.7c0.6-0.1,1.3-0.3,1.9-0.5c0.6-0.2,1.2-0.5,1.8-0.8c0.6-0.3,1.1-0.6,1.6-1c0.5-0.3,0.9-0.7,1.3-1
				h0l2.8,0.5v17.3l3.2,0.4v2.1H141.8z"/>
			<path class="st4" d="M165.7,31.8c-2.7,0-4.8-0.8-6.2-2.5c-1.5-1.7-2.2-4.2-2.2-7.5c0-1.8,0.3-3.4,0.8-4.8
				c0.5-1.3,1.2-2.4,2.1-3.3c0.9-0.8,1.9-1.5,3-1.9c1.1-0.4,2.3-0.6,3.6-0.6c2.7,0,4.8,0.8,6.2,2.5c1.4,1.6,2.1,4.1,2.1,7.4
				c0,1.8-0.3,3.4-0.8,4.8c-0.5,1.3-1.2,2.4-2,3.3c-0.9,0.9-1.8,1.5-3,1.9C168.2,31.6,167,31.8,165.7,31.8z M166.3,29.6
				c0.5,0,1-0.2,1.4-0.5c0.4-0.3,0.7-0.8,0.9-1.4s0.4-1.5,0.5-2.4c0.1-1,0.2-2.2,0.2-3.5c0-1.5,0-2.8-0.1-3.9
				c-0.1-1-0.3-1.9-0.5-2.5c-0.2-0.6-0.5-1.1-0.9-1.3c-0.4-0.3-0.9-0.4-1.5-0.4c-0.5,0-1,0.2-1.4,0.5c-0.4,0.3-0.7,0.8-0.9,1.4
				c-0.2,0.6-0.4,1.4-0.5,2.4c-0.1,1-0.2,2.1-0.2,3.5c0,1.5,0.1,2.8,0.2,3.9s0.3,1.9,0.5,2.5c0.2,0.7,0.6,1.1,1,1.4
				C165.2,29.4,165.7,29.6,166.3,29.6z"/>
			<path class="st4" d="M187.9,31.8c-2.7,0-4.8-0.8-6.2-2.5c-1.5-1.7-2.2-4.2-2.2-7.5c0-1.8,0.3-3.4,0.8-4.8
				c0.5-1.3,1.2-2.4,2.1-3.3c0.9-0.8,1.9-1.5,3-1.9c1.1-0.4,2.3-0.6,3.6-0.6c2.7,0,4.8,0.8,6.2,2.5c1.4,1.6,2.1,4.1,2.1,7.4
				c0,1.8-0.3,3.4-0.8,4.8c-0.5,1.3-1.2,2.4-2,3.3c-0.9,0.9-1.8,1.5-3,1.9C190.4,31.6,189.2,31.8,187.9,31.8z M188.5,29.6
				c0.5,0,1-0.2,1.4-0.5c0.4-0.3,0.7-0.8,0.9-1.4s0.4-1.5,0.5-2.4c0.1-1,0.2-2.2,0.2-3.5c0-1.5,0-2.8-0.1-3.9
				c-0.1-1-0.3-1.9-0.5-2.5c-0.2-0.6-0.5-1.1-0.9-1.3c-0.4-0.3-0.9-0.4-1.5-0.4c-0.5,0-1,0.2-1.4,0.5c-0.4,0.3-0.7,0.8-0.9,1.4
				c-0.2,0.6-0.4,1.4-0.5,2.4c-0.1,1-0.2,2.1-0.2,3.5c0,1.5,0.1,2.8,0.2,3.9s0.3,1.9,0.5,2.5c0.2,0.7,0.6,1.1,1,1.4
				C187.4,29.4,187.9,29.6,188.5,29.6z"/>
			<path class="st4" d="M207.7,21.6c-1,0-1.8-0.2-2.6-0.6c-0.8-0.4-1.4-0.9-2-1.5s-1-1.4-1.3-2.2c-0.3-0.8-0.4-1.7-0.4-2.7
				c0-1.1,0.2-2.2,0.6-3.1c0.4-0.9,0.9-1.6,1.5-2.3s1.4-1.1,2.2-1.4c0.8-0.3,1.7-0.5,2.6-0.5c1.1,0,2.1,0.2,2.9,0.5
				c0.8,0.4,1.5,0.9,2,1.5c0.5,0.6,0.9,1.4,1.2,2.2c0.3,0.8,0.4,1.8,0.4,2.7c0,1.1-0.2,2.2-0.6,3c-0.4,0.9-0.9,1.6-1.5,2.2
				c-0.6,0.6-1.4,1.1-2.2,1.4C209.4,21.4,208.6,21.6,207.7,21.6z M207.9,19.4c0.5,0,0.9-0.2,1.2-0.5c0.3-0.3,0.5-0.7,0.6-1.1
				c0.1-0.5,0.2-1,0.3-1.5c0-0.6,0-1.1,0-1.6c0-0.5,0-1.1,0-1.7c0-0.6-0.1-1.1-0.2-1.6c-0.1-0.5-0.3-0.9-0.6-1.2
				c-0.3-0.3-0.7-0.5-1.1-0.5c-0.5,0-0.9,0.2-1.2,0.5c-0.3,0.3-0.5,0.7-0.6,1.2c-0.1,0.5-0.2,1-0.3,1.5s0,1.1,0,1.6c0,0.5,0,1,0,1.6
				c0,0.6,0.1,1.1,0.2,1.6c0.1,0.5,0.3,0.9,0.6,1.2C207.1,19.2,207.5,19.4,207.9,19.4z M209.8,31.5l10.3-24h3.3l-10.3,24H209.8z
				 M218.7,24.3c0-1.1,0.2-2.2,0.6-3.1c0.4-0.9,0.9-1.6,1.5-2.3s1.4-1.1,2.2-1.4c0.8-0.3,1.7-0.5,2.6-0.5c1.1,0,2,0.2,2.8,0.5
				c0.8,0.4,1.5,0.9,2,1.5c0.5,0.6,0.9,1.4,1.1,2.2c0.3,0.8,0.4,1.8,0.4,2.7c0,1.1-0.2,2.2-0.6,3c-0.4,0.9-0.9,1.6-1.5,2.2
				c-0.6,0.6-1.4,1.1-2.2,1.4c-0.8,0.3-1.7,0.5-2.6,0.5c-1,0-1.9-0.2-2.6-0.6c-0.8-0.4-1.4-0.9-2-1.5s-1-1.4-1.3-2.2
				C218.8,26.2,218.7,25.3,218.7,24.3z M223.3,24.2c0,0.5,0,1,0,1.6c0,0.6,0.1,1.1,0.2,1.6c0.1,0.5,0.3,0.9,0.6,1.2
				c0.3,0.3,0.6,0.5,1.1,0.5c0.5,0,0.9-0.2,1.2-0.5c0.3-0.3,0.5-0.7,0.6-1.1c0.1-0.5,0.2-1,0.3-1.5s0-1.1,0-1.6c0-0.5,0-1.1,0-1.6
				s-0.1-1.1-0.2-1.6c-0.1-0.5-0.3-0.9-0.6-1.2c-0.3-0.3-0.7-0.5-1.1-0.5c-0.5,0-0.9,0.2-1.2,0.5c-0.3,0.3-0.5,0.7-0.6,1.2
				c-0.1,0.5-0.2,1-0.3,1.5S223.3,23.6,223.3,24.2z"/>
		</g>
		<g class="st3">
			<path class="st4" d="M109.1,70.5l0-2.4l2-0.4l7.3-21h5.8l7.4,21l2.3,0.4v2.4h-11v-2.4l2.6-0.4l-1-3.4h-8.1l-0.9,3.4l2.6,0.4v2.4
				H109.1z M119.8,51.7l-2.7,9.9h6.5l-3-9.9l-0.5-2.2L119.8,51.7z"/>
			<path class="st4" d="M135.3,61.7c0-1.5,0.2-2.8,0.6-4c0.4-1.2,1-2.2,1.8-3c0.8-0.8,1.7-1.4,2.8-1.9c1.1-0.4,2.3-0.7,3.7-0.7
				c0.8,0,1.5,0,2.1,0.1c0.6,0.1,1.2,0.2,1.7,0.3s0.9,0.2,1.2,0.3c0.3,0.1,0.6,0.2,0.8,0.2l-0.2,5.7H147l-1-2.8
				c-0.2-0.5-0.5-0.9-0.8-1.1c-0.3-0.3-0.7-0.4-1.1-0.4c-0.4,0-0.8,0.1-1.2,0.3c-0.4,0.2-0.7,0.6-1,1c-0.3,0.5-0.5,1.1-0.7,1.9
				c-0.2,0.8-0.3,1.8-0.3,2.9c0,1.2,0.1,2.3,0.2,3.1c0.2,0.8,0.4,1.5,0.8,2c0.3,0.5,0.8,0.9,1.3,1.1c0.5,0.2,1.1,0.3,1.8,0.3
				c1,0,1.8-0.1,2.5-0.4c0.7-0.2,1.3-0.5,1.8-0.8l0.9,2.1c-0.2,0.2-0.5,0.5-0.9,0.8c-0.4,0.3-0.9,0.6-1.5,0.8s-1.2,0.5-1.9,0.7
				s-1.5,0.3-2.2,0.3c-1.5,0-2.8-0.2-3.9-0.7c-1.1-0.5-2-1.1-2.7-1.9s-1.2-1.8-1.5-2.9C135.5,64.2,135.3,63,135.3,61.7z"/>
			<path class="st4" d="M153.8,61.7c0-1.5,0.2-2.8,0.6-4c0.4-1.2,1-2.2,1.8-3c0.8-0.8,1.7-1.4,2.8-1.9c1.1-0.4,2.3-0.7,3.7-0.7
				c0.8,0,1.5,0,2.1,0.1c0.6,0.1,1.2,0.2,1.7,0.3s0.9,0.2,1.2,0.3c0.3,0.1,0.6,0.2,0.8,0.2l-0.2,5.7h-3.1l-1-2.8
				c-0.2-0.5-0.5-0.9-0.8-1.1c-0.3-0.3-0.7-0.4-1.1-0.4c-0.4,0-0.8,0.1-1.2,0.3c-0.4,0.2-0.7,0.6-1,1c-0.3,0.5-0.5,1.1-0.7,1.9
				c-0.2,0.8-0.3,1.8-0.3,2.9c0,1.2,0.1,2.3,0.2,3.1c0.2,0.8,0.4,1.5,0.8,2c0.3,0.5,0.8,0.9,1.3,1.1c0.5,0.2,1.1,0.3,1.8,0.3
				c1,0,1.8-0.1,2.5-0.4c0.7-0.2,1.3-0.5,1.8-0.8l0.9,2.1c-0.2,0.2-0.5,0.5-0.9,0.8c-0.4,0.3-0.9,0.6-1.5,0.8s-1.2,0.5-1.9,0.7
				s-1.5,0.3-2.2,0.3c-1.5,0-2.8-0.2-3.9-0.7c-1.1-0.5-2-1.1-2.7-1.9s-1.2-1.8-1.5-2.9C154,64.2,153.8,63,153.8,61.7z"/>
			<path class="st4" d="M187.4,70.8c-0.8,0-1.4-0.2-1.8-0.6s-0.5-0.9-0.5-1.5v-0.5c-0.3,0.3-0.6,0.7-1,1c-0.4,0.3-0.8,0.6-1.3,0.9
				s-1,0.4-1.5,0.6c-0.5,0.1-1,0.2-1.6,0.2c-1,0-1.9-0.1-2.7-0.4c-0.8-0.2-1.4-0.6-1.9-1.2c-0.5-0.5-0.8-1.2-1.1-2.1
				c-0.2-0.9-0.3-1.9-0.3-3.1v-8.9l-1.5-0.5v-2l6.2-0.4h0l0.7,0.4v11.7c0,1.2,0.2,2,0.6,2.5c0.4,0.5,1,0.8,1.9,0.8
				c0.4,0,0.7,0,1-0.1c0.3-0.1,0.6-0.2,0.8-0.3c0.2-0.1,0.4-0.2,0.6-0.3c0.2-0.1,0.3-0.2,0.4-0.3V55.2l-2.1-0.6v-2l6.7-0.4h0
				l0.8,0.4v15.5h1.7v2.1c-0.2,0-0.4,0.1-0.7,0.2s-0.6,0.1-1,0.2c-0.4,0.1-0.8,0.1-1.2,0.1C188.3,70.8,187.8,70.8,187.4,70.8z"/>
			<path class="st4" d="M195.4,70.5v-2.3l2.1-0.3V56.3l-2.1-0.6v-2.6l5.8-0.8h0.1l0.9,0.7v4.1h0.1c0.2-0.4,0.4-0.9,0.7-1.5
				s0.7-1.1,1.2-1.6c0.5-0.5,1-0.9,1.6-1.3c0.6-0.3,1.3-0.5,2-0.5c0.4,0,0.6,0,0.8,0c0.2,0,0.3,0.1,0.4,0.1v6.2
				c-0.1-0.1-0.5-0.2-1-0.3c-0.5-0.1-1.2-0.1-2-0.1c-0.3,0-0.5,0-0.8,0c-0.3,0-0.6,0.1-0.9,0.1c-0.3,0-0.6,0.1-0.8,0.2
				c-0.2,0.1-0.4,0.1-0.5,0.2v9.2l3.7,0.4v2.2H195.4z"/>
			<path class="st4" d="M212.1,65.7c0-0.8,0.1-1.4,0.4-2s0.7-1.1,1.1-1.6s1-0.8,1.7-1.2c0.7-0.3,1.4-0.6,2.1-0.8s1.5-0.4,2.4-0.5
				c0.8-0.1,1.6-0.2,2.5-0.2v-0.7c0-1.1-0.2-1.8-0.7-2.3s-1.2-0.7-2.3-0.7c-0.6,0-1.1,0-1.7,0.1c-0.6,0.1-1.1,0.2-1.6,0.3
				s-1,0.3-1.5,0.4c-0.4,0.2-0.8,0.3-1.2,0.4h0l-1-2.4c0.2-0.2,0.6-0.4,1.1-0.7s1.2-0.6,1.9-0.8s1.6-0.5,2.5-0.7
				c0.9-0.2,1.9-0.3,2.9-0.3c1.2,0,2.2,0.1,3,0.4s1.5,0.7,2.1,1.2c0.5,0.5,0.9,1.2,1.2,2s0.4,1.7,0.4,2.8v9.5h1.9v2.1
				c-0.2,0-0.4,0.1-0.7,0.2s-0.6,0.1-1,0.2c-0.4,0.1-0.8,0.1-1.3,0.1c-0.5,0-0.9,0.1-1.4,0.1c-0.4,0-0.8,0-1.1-0.1
				c-0.3,0-0.5-0.1-0.7-0.2s-0.3-0.3-0.4-0.5c-0.1-0.2-0.1-0.5-0.1-0.9v-1.1c-0.2,0.3-0.5,0.6-0.8,0.9c-0.3,0.3-0.7,0.6-1.1,0.9
				c-0.4,0.3-0.9,0.5-1.5,0.6s-1.2,0.3-1.9,0.3c-0.8,0-1.4-0.1-2.1-0.3s-1.2-0.5-1.7-0.9c-0.5-0.4-0.8-1-1.1-1.6
				C212.2,67.4,212.1,66.6,212.1,65.7z M219.9,67.5c0.1,0,0.3,0,0.5-0.1s0.4-0.1,0.7-0.2c0.2-0.1,0.4-0.2,0.7-0.3
				c0.2-0.1,0.4-0.3,0.6-0.4v-4.9c-0.9,0-1.6,0.1-2.2,0.3s-1.1,0.4-1.4,0.7c-0.4,0.3-0.6,0.6-0.8,1c-0.2,0.4-0.2,0.8-0.2,1.2
				c0,0.8,0.2,1.5,0.5,1.9C218.5,67.3,219.1,67.5,219.9,67.5z"/>
			<path class="st4" d="M234.2,66.5V55.4H232v-1.9c0,0,0.2-0.1,0.4-0.1c0.2-0.1,0.4-0.1,0.6-0.2c0.2-0.1,0.4-0.2,0.6-0.2
				c0.2-0.1,0.3-0.1,0.3-0.1c0.4-0.4,0.8-0.9,1.3-1.7c0.2-0.4,0.5-0.9,0.7-1.5c0.2-0.6,0.5-1.2,0.6-1.7h3.2l0.1,4.8h4.3v2.9h-4.3
				v8.3c0,0.8,0,1.4,0,1.9c0,0.5,0.1,0.8,0.2,1.1s0.2,0.4,0.4,0.5s0.4,0.1,0.8,0.1h0c0.2,0,0.5,0,0.7-0.1c0.3,0,0.5-0.1,0.7-0.1
				c0.2-0.1,0.5-0.1,0.7-0.2c0.2-0.1,0.4-0.1,0.5-0.2h0l0.8,2c-0.3,0.3-0.7,0.5-1.2,0.8c-0.5,0.3-1,0.5-1.5,0.7s-1.2,0.4-1.8,0.5
				c-0.6,0.1-1.3,0.2-2,0.2h0c-0.8,0-1.4-0.1-1.9-0.3c-0.5-0.2-0.9-0.5-1.2-0.9s-0.5-0.8-0.6-1.4C234.2,67.8,234.2,67.2,234.2,66.5z
				"/>
			<path class="st4" d="M255.8,70.8c-1.5,0-2.9-0.2-3.9-0.7s-2-1.1-2.7-1.9c-0.7-0.8-1.2-1.8-1.5-2.9s-0.5-2.4-0.5-3.7
				c0-1.5,0.2-2.8,0.6-4c0.4-1.2,1-2.1,1.7-2.9s1.7-1.4,2.7-1.8c1.1-0.4,2.3-0.6,3.6-0.6c2.3,0,4,0.5,5.1,1.6c1.1,1,1.8,2.6,1.9,4.8
				c0,0.8,0,1.4,0,2c0,0.6-0.1,1.1-0.2,1.5h-9.9c0.1,0.9,0.2,1.8,0.4,2.4s0.5,1.2,0.9,1.6c0.4,0.4,0.8,0.7,1.3,0.9s1.1,0.3,1.8,0.3
				c0.6,0,1.1,0,1.5-0.1s0.9-0.2,1.3-0.3c0.4-0.1,0.7-0.3,1-0.4c0.3-0.1,0.6-0.3,0.8-0.4l0.9,2.1c-0.2,0.3-0.6,0.5-1.1,0.9
				c-0.5,0.3-1,0.6-1.6,0.9c-0.6,0.3-1.3,0.5-2,0.7S256.6,70.8,255.8,70.8z M255.4,54.5c-0.3,0-0.6,0.1-0.9,0.2
				c-0.3,0.1-0.6,0.4-0.8,0.8s-0.4,0.9-0.6,1.7c-0.2,0.7-0.2,1.7-0.3,2.8h4.8c0,0,0-0.1,0-0.2c0-0.1,0-0.2,0-0.3c0-0.1,0-0.2,0-0.3
				c0-0.1,0-0.1,0-0.2c0-0.5,0-1-0.1-1.6c0-0.5-0.1-1-0.3-1.5c-0.2-0.4-0.4-0.8-0.7-1.1S255.9,54.5,255.4,54.5z"/>
		</g>
		<g class="st3">
			<path class="st4" d="M119.8,119.1v3c0,3.6-1.8,5.6-5.2,5.6c-3.5,0-5.2-2-5.2-5.6v-11.6c0-3.6,1.8-5.6,5.2-5.6
				c3.5,0,5.2,2,5.2,5.6v2.2h-3.3v-2.4c0-1.6-0.7-2.2-1.8-2.2c-1.1,0-1.8,0.6-1.8,2.2v12.1c0,1.6,0.7,2.2,1.8,2.2
				c1.1,0,1.8-0.6,1.8-2.2v-3.2H119.8z"/>
			<path class="st4" d="M134.9,127.5h-3.6l-0.6-4.1h-4.3l-0.6,4.1h-3.2l3.6-22.4h5.2L134.9,127.5z M126.9,120.4h3.4l-1.7-11.3
				L126.9,120.4z"/>
			<path class="st4" d="M138.2,105.1h3.5v19.2h5.8v3.2h-9.3V105.1z"/>
			<path class="st4" d="M160.8,119.1v3c0,3.6-1.8,5.6-5.2,5.6c-3.5,0-5.2-2-5.2-5.6v-11.6c0-3.6,1.8-5.6,5.2-5.6
				c3.5,0,5.2,2,5.2,5.6v2.2h-3.3v-2.4c0-1.6-0.7-2.2-1.8-2.2c-1.1,0-1.8,0.6-1.8,2.2v12.1c0,1.6,0.7,2.2,1.8,2.2
				c1.1,0,1.8-0.6,1.8-2.2v-3.2H160.8z"/>
			<path class="st4" d="M167.9,105.1v17.3c0,1.6,0.7,2.2,1.8,2.2c1.1,0,1.8-0.6,1.8-2.2v-17.3h3.3v17.1c0,3.6-1.8,5.6-5.2,5.6
				c-3.5,0-5.2-2-5.2-5.6v-17.1H167.9z"/>
			<path class="st4" d="M178.9,105.1h3.5v19.2h5.8v3.2h-9.3V105.1z"/>
			<path class="st4" d="M202.7,127.5h-3.6l-0.6-4.1h-4.3l-0.6,4.1h-3.2l3.6-22.4h5.2L202.7,127.5z M194.7,120.4h3.4l-1.7-11.3
				L194.7,120.4z"/>
			<path class="st4" d="M203.7,105.1h10.9v3.2h-3.7v19.2h-3.5v-19.2h-3.7V105.1z"/>
			<path class="st4" d="M217.8,105.1h3.5v22.4h-3.5V105.1z"/>
			<path class="st4" d="M225.1,110.5c0-3.6,1.9-5.6,5.3-5.6s5.3,2,5.3,5.6v11.6c0,3.6-1.9,5.6-5.3,5.6s-5.3-2-5.3-5.6V110.5z
				 M228.7,122.3c0,1.6,0.7,2.2,1.8,2.2s1.8-0.6,1.8-2.2v-12.1c0-1.6-0.7-2.2-1.8-2.2s-1.8,0.6-1.8,2.2V122.3z"/>
			<path class="st4" d="M242.8,111.3v16.2h-3.2v-22.4h4.4l3.6,13.4v-13.4h3.1v22.4h-3.6L242.8,111.3z"/>
			<path class="st4" d="M259.7,104.8c3.4,0,5.2,2,5.2,5.6v0.7h-3.3v-0.9c0-1.6-0.6-2.2-1.8-2.2s-1.8,0.6-1.8,2.2
				c0,4.6,6.9,5.5,6.9,11.9c0,3.6-1.8,5.6-5.2,5.6s-5.2-2-5.2-5.6v-1.4h3.3v1.6c0,1.6,0.7,2.2,1.8,2.2c1.1,0,1.8-0.6,1.8-2.2
				c0-4.6-6.9-5.5-6.9-11.9C254.5,106.9,256.3,104.8,259.7,104.8z"/>
		</g>
		<g class="st3">
			<path class="st4" d="M123.5,148h4.9v7.1c0,3.6-1.8,5.6-5.2,5.6c-3.5,0-5.2-2-5.2-5.6v-11.6c0-3.6,1.8-5.6,5.2-5.6
				c3.5,0,5.2,2,5.2,5.6v2.2h-3.3v-2.4c0-1.6-0.7-2.2-1.8-2.2c-1.1,0-1.8,0.6-1.8,2.2v12.1c0,1.6,0.7,2.2,1.8,2.2
				c1.1,0,1.8-0.6,1.8-2.2v-4.1h-1.6V148z"/>
			<path class="st4" d="M135.6,138.1v17.3c0,1.6,0.7,2.2,1.8,2.2c1.1,0,1.8-0.6,1.8-2.2v-17.3h3.3v17.1c0,3.6-1.8,5.6-5.2,5.6
				c-3.5,0-5.2-2-5.2-5.6v-17.1H135.6z"/>
			<path class="st4" d="M158,160.5h-3.6l-0.6-4.1h-4.3l-0.6,4.1h-3.2l3.6-22.4h5.2L158,160.5z M149.9,153.4h3.4l-1.7-11.3
				L149.9,153.4z"/>
			<path class="st4" d="M168.6,160.5c-0.2-0.6-0.3-0.9-0.3-2.8v-3.5c0-2.1-0.7-2.8-2.3-2.8h-1.2v9.1h-3.5v-22.4h5.3
				c3.6,0,5.2,1.7,5.2,5.2v1.8c0,2.3-0.7,3.8-2.3,4.5c1.8,0.7,2.3,2.4,2.3,4.8v3.5c0,1.1,0,1.9,0.4,2.7H168.6z M164.7,141.3v6.9h1.4
				c1.3,0,2.1-0.6,2.1-2.4v-2.2c0-1.6-0.5-2.3-1.8-2.3H164.7z"/>
			<path class="st4" d="M187.1,160.5h-3.6l-0.6-4.1h-4.3l-0.6,4.1h-3.2l3.6-22.4h5.2L187.1,160.5z M179,153.4h3.4l-1.7-11.3
				L179,153.4z"/>
			<path class="st4" d="M193.4,144.3v16.2h-3.2v-22.4h4.4l3.6,13.4v-13.4h3.1v22.4h-3.6L193.4,144.3z"/>
			<path class="st4" d="M204.5,138.1h10.9v3.2h-3.7v19.2h-3.5v-19.2h-3.7V138.1z"/>
			<path class="st4" d="M222.1,147.5h4.8v3.2h-4.8v6.6h6.1v3.2h-9.6v-22.4h9.6v3.2h-6.1V147.5z"/>
			<path class="st4" d="M235.5,147.5h4.8v3.2h-4.8v6.6h6.1v3.2h-9.6v-22.4h9.6v3.2h-6.1V147.5z"/>
			<path class="st4" d="M245.3,138.1h5.6c3.5,0,5.2,2,5.2,5.5V155c0,3.6-1.7,5.5-5.2,5.5h-5.6V138.1z M248.8,141.3v16h2
				c1.1,0,1.8-0.6,1.8-2.2v-11.6c0-1.6-0.7-2.2-1.8-2.2H248.8z"/>
		</g>
	</g>
</g>
</svg>
