<?xml version="1.0" encoding="utf-8"?>
<!-- Generator: Adobe Illustrator 25.0.1, SVG Export Plug-In . SVG Version: 6.00 Build 0)  -->
<svg version="1.1" id="Layer_1" xmlns="http://www.w3.org/2000/svg" xmlns:xlink="http://www.w3.org/1999/xlink" x="0px" y="0px"
	 viewBox="0 0 373 326.4" style="enable-background:new 0 0 373 326.4;" xml:space="preserve">
<style type="text/css">
	.st0{fill:#FF7676;}
	.st1{fill:#FFFFFF;}
	.st2{fill:none;}
	.st3{enable-background:new    ;}
	.st4{fill:#3A3A3A;}
</style>
<g id="Circle2" transform="translate(-883 -3365)">
	<g id="Path_26">
		<path class="st0" d="M1081.5,3365.5c1.4-0.8,3.2-0.6,4.4,0.5l11.1,10c1,0.9,2.4,1.2,3.6,0.8l14.1-4.6c1.5-0.5,3.2,0.1,4.2,1.4
			l8.8,12.1c0.8,1.1,2.1,1.7,3.4,1.5l14.8-1.5c1.6-0.2,3.1,0.7,3.8,2.2l6.1,13.7c0.5,1.2,1.7,2.1,3,2.2l14.8,1.6
			c1.6,0.2,2.9,1.4,3.2,2.9l3.2,14.6c0.3,1.3,1.2,2.4,2.5,2.8l14.1,4.7c1.5,0.5,2.6,1.9,2.6,3.6l0.1,15c0,1.3,0.7,2.6,1.9,3.2
			l12.8,7.6c1.4,0.8,2.1,2.4,1.8,4l-3,14.7c-0.3,1.3,0.2,2.6,1.1,3.5l11,10.1c1.2,1.1,1.6,2.8,0.9,4.3l-6,13.7
			c-0.5,1.2-0.4,2.6,0.4,3.7l8.7,12.2c0.9,1.3,0.9,3.1,0,4.4l-8.7,12.2c-0.8,1.1-0.9,2.5-0.4,3.7l6,13.7c0.6,1.5,0.3,3.2-0.9,4.3
			l-11,10.1c-1,0.9-1.4,2.2-1.1,3.6l3,14.7c0.3,1.6-0.4,3.2-1.8,4l-12.8,7.6c-1.1,0.7-1.8,1.9-1.9,3.2l-0.1,15c0,1.6-1,3-2.6,3.6
			l-14.1,4.7c-1.3,0.4-2.2,1.5-2.5,2.8l-3.2,14.6c-0.3,1.6-1.6,2.8-3.2,2.9l-14.8,1.6c-1.3,0.1-2.5,1-3,2.2l-6.1,13.7
			c-0.7,1.5-2.2,2.4-3.8,2.2l-14.8-1.5c-1.3-0.1-2.6,0.4-3.4,1.5l-8.8,12.1c-0.9,1.3-2.6,1.9-4.2,1.4l-14.1-4.6
			c-1.3-0.4-2.6-0.1-3.6,0.8l-11.1,10c-1.2,1.1-3,1.3-4.4,0.5l-12.9-7.4c-1.2-0.7-2.6-0.7-3.7,0l-12.9,7.4c-1.4,0.8-3.2,0.6-4.4-0.5
			l-11.1-10c-1-0.9-2.4-1.2-3.6-0.8l-14.1,4.6c-1.5,0.5-3.2-0.1-4.2-1.4l-8.8-12.1c-0.8-1.1-2.1-1.7-3.4-1.5l-14.8,1.5
			c-1.6,0.2-3.1-0.7-3.8-2.2l-6.1-13.7c-0.5-1.2-1.7-2.1-3-2.2l-14.8-1.6c-1.6-0.2-2.9-1.4-3.2-2.9l-3.2-14.6
			c-0.3-1.3-1.2-2.4-2.5-2.8L937,3626c-1.5-0.5-2.6-1.9-2.6-3.6l-0.1-15c0-1.3-0.7-2.6-1.9-3.2l-12.8-7.6c-1.4-0.8-2.1-2.4-1.8-4
			l3-14.7c0.3-1.3-0.2-2.6-1.1-3.6l-11-10.1c-1.2-1.1-1.6-2.8-0.9-4.3l6-13.7c0.5-1.2,0.4-2.6-0.4-3.7l-8.7-12.2
			c-0.9-1.3-0.9-3.1,0-4.4l8.7-12.2c0.8-1.1,0.9-2.5,0.4-3.7l-6-13.7c-0.6-1.5-0.3-3.2,0.9-4.3l11-10.1c1-0.9,1.4-2.2,1.1-3.5
			l-3-14.7c-0.3-1.6,0.4-3.2,1.8-4l12.8-7.6c1.1-0.7,1.8-1.9,1.9-3.2l0.1-15c0-1.6,1-3,2.6-3.6l14.1-4.7c1.3-0.4,2.2-1.5,2.5-2.8
			l3.2-14.6c0.3-1.6,1.6-2.8,3.2-2.9l14.8-1.6c1.3-0.1,2.5-1,3-2.2l6.1-13.7c0.7-1.5,2.2-2.4,3.8-2.2l14.8,1.5
			c1.3,0.1,2.6-0.4,3.4-1.5l8.8-12.1c0.9-1.3,2.6-1.9,4.2-1.4l14.1,4.6c1.3,0.4,2.6,0.1,3.6-0.8l11.1-10c1.2-1.1,3-1.3,4.4-0.5
			l12.9,7.4c1.1,0.7,2.6,0.7,3.7,0L1081.5,3365.5z"/>
	</g>
	<g id="Group_51" transform="translate(932.19 3392.412)">
		<g id="Ellipse_7">
			<circle class="st1" cx="136.8" cy="135.6" r="122"/>
		</g>
		<g id="Ellipse_8" transform="translate(-0.19 -0.412)">
			<g>
				<circle class="st2" cx="136.5" cy="136.5" r="136.5"/>
			</g>
			<g>
				<path class="st1" d="M136.5,273C61.2,273,0,211.8,0,136.5C0,61.2,61.2,0,136.5,0C211.8,0,273,61.2,273,136.5
					C273,211.8,211.8,273,136.5,273z M136.5,8C65.6,8,8,65.6,8,136.5C8,207.4,65.6,265,136.5,265c70.9,0,128.5-57.6,128.5-128.5
					C265,65.6,207.4,8,136.5,8z"/>
			</g>
		</g>
	</g>
	<g class="st3">
		<path class="st4" d="M991.7,3502.4c-2.1,0-4-0.3-5.6-1s-2.9-1.6-4-2.8s-1.9-2.6-2.4-4.3s-0.8-3.5-0.8-5.5c0-2.1,0.4-4,1.1-5.7
			s1.7-3.2,3-4.4s2.8-2.1,4.5-2.8s3.6-1,5.7-1c0.9,0,1.7,0,2.4,0.1s1.5,0.2,2.1,0.3s1.3,0.3,1.8,0.4s1,0.2,1.5,0.3l-0.4,7.4h-4.2
			l-1.1-4.9c-0.1-0.1-0.2-0.3-0.4-0.4s-0.3-0.2-0.5-0.3s-0.5-0.2-0.8-0.2s-0.7-0.1-1.1-0.1c-1,0-1.9,0.2-2.7,0.6s-1.5,1.1-2.1,1.9
			s-1,2-1.3,3.3s-0.5,2.9-0.5,4.7c0,1.5,0.1,3,0.4,4.4s0.6,2.7,1.2,3.7s1.2,1.9,2,2.6s1.7,1,2.8,1c0.6,0,1,0,1.4-0.1s0.7-0.1,1-0.3
			s0.5-0.2,0.7-0.4s0.3-0.3,0.4-0.4l1.6-4.1l3.5,0.1l-0.2,6.4c-0.5,0-1,0.1-1.6,0.3s-1.2,0.3-1.8,0.5s-1.5,0.3-2.4,0.4
			S992.9,3502.4,991.7,3502.4z"/>
		<path class="st4" d="M1004.3,3492.1c0-1.9,0.3-3.4,0.8-4.8s1.3-2.4,2.2-3.3s2-1.5,3.2-1.9s2.5-0.6,3.9-0.6c1.5,0,2.8,0.2,4,0.7
			s2.2,1.1,3,1.9s1.5,1.9,1.9,3.2s0.7,2.8,0.7,4.5c0,1.9-0.3,3.5-0.8,4.9s-1.3,2.5-2.2,3.3s-2,1.5-3.2,1.9s-2.5,0.6-3.9,0.6
			c-1.5,0-2.8-0.2-4-0.7s-2.2-1.1-3-2s-1.5-1.9-1.9-3.2S1004.3,3493.8,1004.3,3492.1z M1014.3,3499.8c0.6,0,1-0.1,1.4-0.4
			s0.7-0.7,1-1.3s0.4-1.3,0.6-2.3s0.2-2.1,0.2-3.4c0-1.5-0.1-2.7-0.2-3.8s-0.3-1.9-0.6-2.6s-0.6-1.2-1-1.5s-0.9-0.5-1.5-0.5
			c-0.6,0-1,0.1-1.4,0.4s-0.7,0.7-1,1.3s-0.5,1.3-0.6,2.3s-0.2,2.1-0.2,3.4c0,1.5,0.1,2.7,0.2,3.8s0.3,1.9,0.6,2.6s0.6,1.2,1,1.5
			S1013.7,3499.8,1014.3,3499.8z"/>
		<path class="st4" d="M1027.9,3502v-2.5l2.2-0.5v-13l-2.3-0.7v-3l6.8-0.9h0.1l1,0.8v1.2l0,0.8c0.4-0.4,0.9-0.7,1.4-1.1
			s1.2-0.6,1.8-0.9s1.3-0.5,2-0.6s1.3-0.2,1.9-0.2c1.4,0,2.4,0.2,3.3,0.7s1.4,1.1,1.8,2.1c0.3-0.3,0.8-0.6,1.3-0.9s1.1-0.6,1.7-0.9
			s1.3-0.5,2-0.7s1.4-0.3,2.2-0.3c1.1,0,2,0.1,2.7,0.4s1.3,0.7,1.8,1.3s0.8,1.4,1,2.4s0.3,2.2,0.3,3.6v9.7l2.4,0.5v2.5H1053v-2.5
			l1.7-0.5v-9.5c0-0.9,0-1.6-0.1-2.2s-0.3-1-0.5-1.4s-0.5-0.6-0.8-0.7s-0.8-0.2-1.2-0.2c-0.3,0-0.5,0-0.9,0.1s-0.6,0.2-1,0.3
			s-0.6,0.2-0.9,0.4s-0.6,0.3-0.8,0.4c0.1,0.9,0.2,1.9,0.2,3.1v9.7l2.2,0.5v2.5h-10.4v-2.5l2-0.4v-9.8c0-0.8,0-1.4-0.1-1.9
			s-0.2-1-0.5-1.3s-0.5-0.6-0.9-0.7s-0.8-0.2-1.3-0.2c-0.3,0-0.6,0-1,0.1s-0.7,0.2-1,0.3s-0.6,0.2-0.9,0.4s-0.5,0.3-0.6,0.4v12.7
			l2.4,0.5v2.5H1027.9z"/>
		<path class="st4" d="M1066,3508.3l2.6-0.5v-21.8l-2.3-0.7v-3l6.9-0.9h0.1l0.9,0.8v1.8c0.3-0.4,0.6-0.7,1-1s0.8-0.6,1.3-0.9
			s1-0.4,1.6-0.6s1.2-0.2,1.9-0.2c1.1,0,2.1,0.2,3.1,0.5s1.8,0.9,2.4,1.7s1.2,1.8,1.6,3.1s0.6,2.8,0.6,4.6c0,1.6-0.2,3-0.7,4.4
			s-1.2,2.5-2,3.5s-2,1.8-3.3,2.3s-2.8,0.8-4.4,0.8c-0.6,0-1.1,0-1.6-0.1s-0.8-0.1-1-0.2l0.1,2.9v2.9l3.4,0.5v2.4H1066V3508.3z
			 M1077.5,3484.9c-0.6,0-1.1,0.1-1.6,0.3s-0.8,0.4-1.1,0.7v13.3c0.2,0.2,0.5,0.3,0.8,0.5s0.8,0.2,1.3,0.2c0.6,0,1.1-0.1,1.6-0.4
			s0.9-0.7,1.3-1.3s0.7-1.4,0.9-2.4s0.4-2.3,0.4-3.7c0-1.3,0-2.4-0.2-3.3s-0.4-1.6-0.7-2.2s-0.7-1-1.1-1.2
			S1078.1,3484.9,1077.5,3484.9z"/>
		<path class="st4" d="M1090.9,3502v-2.6l2.4-0.4v-22.9l-2.5-0.5v-2.3l7.4-0.9h0.1l1.2,0.9v25.6l2.5,0.4v2.6H1090.9z"/>
		<path class="st4" d="M1114.6,3502.4c-1.7,0-3.2-0.3-4.4-0.8s-2.2-1.2-3-2.2s-1.3-2-1.7-3.3s-0.5-2.7-0.5-4.2
			c0-1.7,0.2-3.2,0.7-4.5s1.1-2.4,2-3.3s1.9-1.6,3.1-2s2.5-0.7,4-0.7c2.6,0,4.5,0.6,5.8,1.7s2,3,2.1,5.4c0,0.8,0,1.6,0,2.3
			s-0.1,1.3-0.2,1.7h-11.1c0.1,1.1,0.2,2,0.5,2.7s0.6,1.3,1,1.8s0.9,0.8,1.5,1s1.2,0.3,2,0.3c0.6,0,1.2,0,1.7-0.1s1-0.2,1.4-0.3
			s0.8-0.3,1.1-0.4s0.6-0.3,0.9-0.5l1,2.3c-0.3,0.3-0.7,0.6-1.2,1s-1.1,0.7-1.8,1s-1.4,0.6-2.3,0.8S1115.4,3502.4,1114.6,3502.4z
			 M1114.1,3484c-0.4,0-0.7,0.1-1.1,0.2s-0.6,0.4-0.9,0.9s-0.5,1.1-0.7,1.9s-0.3,1.9-0.3,3.2h5.3c0,0,0-0.1,0-0.2s0-0.2,0-0.3
			s0-0.2,0-0.3s0-0.2,0-0.2c0-0.6,0-1.2-0.1-1.8s-0.2-1.2-0.3-1.7s-0.4-0.9-0.7-1.2S1114.6,3484,1114.1,3484z"/>
		<path class="st4" d="M1128.1,3497.6V3485h-2.4v-2.2c0,0,0.2-0.1,0.4-0.1s0.4-0.2,0.7-0.3s0.5-0.2,0.7-0.3s0.3-0.1,0.3-0.1
			c0.4-0.4,0.9-1,1.4-1.9c0.3-0.5,0.5-1.1,0.8-1.7s0.5-1.3,0.7-2h3.6l0.1,5.4h4.8v3.2h-4.8v9.4c0,0.9,0,1.6,0,2.1s0.1,0.9,0.2,1.2
			s0.3,0.5,0.5,0.6s0.5,0.1,0.9,0.1h0c0.3,0,0.5,0,0.8-0.1s0.6-0.1,0.8-0.2s0.5-0.1,0.8-0.2s0.4-0.1,0.6-0.2h0l0.9,2.3
			c-0.4,0.3-0.8,0.6-1.3,0.9s-1.1,0.6-1.7,0.8s-1.3,0.4-2,0.6s-1.5,0.2-2.2,0.2h0c-0.9,0-1.6-0.1-2.1-0.4s-1-0.6-1.4-1
			s-0.6-0.9-0.7-1.5S1128.1,3498.3,1128.1,3497.6z"/>
		<path class="st4" d="M1151.9,3502.4c-1.7,0-3.2-0.3-4.4-0.8s-2.2-1.2-3-2.2s-1.3-2-1.7-3.3s-0.5-2.7-0.5-4.2
			c0-1.7,0.2-3.2,0.7-4.5s1.1-2.4,2-3.3s1.9-1.6,3.1-2s2.5-0.7,4-0.7c2.6,0,4.5,0.6,5.8,1.7s2,3,2.1,5.4c0,0.8,0,1.6,0,2.3
			s-0.1,1.3-0.2,1.7h-11.1c0.1,1.1,0.2,2,0.5,2.7s0.6,1.3,1,1.8s0.9,0.8,1.5,1s1.2,0.3,2,0.3c0.6,0,1.2,0,1.7-0.1s1-0.2,1.4-0.3
			s0.8-0.3,1.1-0.4s0.6-0.3,0.9-0.5l1,2.3c-0.3,0.3-0.7,0.6-1.2,1s-1.1,0.7-1.8,1s-1.4,0.6-2.3,0.8S1152.7,3502.4,1151.9,3502.4z
			 M1151.4,3484c-0.4,0-0.7,0.1-1.1,0.2s-0.6,0.4-0.9,0.9s-0.5,1.1-0.7,1.9s-0.3,1.9-0.3,3.2h5.3c0,0,0-0.1,0-0.2s0-0.2,0-0.3
			s0-0.2,0-0.3s0-0.2,0-0.2c0-0.6,0-1.2-0.1-1.8s-0.2-1.2-0.3-1.7s-0.4-0.9-0.7-1.2S1151.9,3484,1151.4,3484z"/>
	</g>
	<g class="st3">
		<path class="st4" d="M1024.9,3553.4c-2.1,0-4-0.3-5.6-1s-2.9-1.6-4-2.8s-1.9-2.6-2.4-4.3s-0.8-3.5-0.8-5.5c0-2.1,0.4-4,1.1-5.7
			s1.7-3.2,3-4.4s2.8-2.1,4.5-2.8s3.6-1,5.7-1c0.9,0,1.7,0,2.4,0.1s1.5,0.2,2.1,0.3s1.3,0.3,1.8,0.4s1,0.2,1.5,0.3l-0.4,7.4h-4.2
			l-1.1-4.9c-0.1-0.1-0.2-0.3-0.4-0.4s-0.3-0.2-0.5-0.3s-0.5-0.2-0.8-0.2s-0.7-0.1-1.1-0.1c-1,0-1.9,0.2-2.7,0.6s-1.5,1.1-2.1,1.9
			s-1,2-1.3,3.3s-0.5,2.9-0.5,4.7c0,1.5,0.1,3,0.4,4.4s0.6,2.7,1.2,3.7s1.2,1.9,2,2.6s1.7,1,2.8,1c0.6,0,1,0,1.4-0.1s0.7-0.1,1-0.3
			s0.5-0.2,0.7-0.4s0.3-0.3,0.4-0.4l1.6-4.1l3.5,0.1l-0.2,6.4c-0.5,0-1,0.1-1.6,0.3s-1.2,0.3-1.8,0.5s-1.5,0.3-2.4,0.4
			S1026.1,3553.4,1024.9,3553.4z"/>
		<path class="st4" d="M1037.4,3553v-2.6l2.2-0.4v-22.9l-2.5-0.5v-2.3l7.4-0.9h0.1l1.2,0.9l0.1,8.4l-0.4,2.6
			c0.3-0.3,0.7-0.6,1.2-0.9s1-0.6,1.6-0.9s1.3-0.5,2-0.7s1.5-0.3,2.3-0.3c1.1,0,2.1,0.2,2.9,0.5s1.4,0.8,1.8,1.4s0.8,1.5,0.9,2.4
			s0.3,2.1,0.3,3.5v9.7l2.4,0.4v2.6h-10.3v-2.5l1.8-0.4v-9.8c0-0.8,0-1.4-0.1-1.9s-0.2-1-0.4-1.3s-0.5-0.6-0.9-0.7s-0.8-0.2-1.4-0.2
			c-0.3,0-0.7,0-1,0.1s-0.7,0.2-1,0.3s-0.6,0.2-0.9,0.4s-0.5,0.3-0.6,0.4v12.7l2.3,0.4v2.6H1037.4z"/>
		<path class="st4" d="M1073.1,3553.4c-1.7,0-3.2-0.3-4.4-0.8s-2.2-1.2-3-2.2s-1.3-2-1.7-3.3s-0.5-2.7-0.5-4.2
			c0-1.7,0.2-3.2,0.7-4.5s1.1-2.4,2-3.3s1.9-1.6,3.1-2s2.5-0.7,4-0.7c2.6,0,4.5,0.6,5.8,1.7s2,3,2.1,5.4c0,0.8,0,1.6,0,2.3
			s-0.1,1.3-0.2,1.7h-11.1c0.1,1.1,0.2,2,0.5,2.7s0.6,1.3,1,1.8s0.9,0.8,1.5,1s1.2,0.3,2,0.3c0.6,0,1.2,0,1.7-0.1s1-0.2,1.4-0.3
			s0.8-0.3,1.1-0.4s0.6-0.3,0.9-0.5l1,2.3c-0.3,0.3-0.7,0.6-1.2,1s-1.1,0.7-1.8,1s-1.4,0.6-2.3,0.8S1073.9,3553.4,1073.1,3553.4z
			 M1072.6,3535c-0.4,0-0.7,0.1-1.1,0.2s-0.6,0.4-0.9,0.9s-0.5,1.1-0.7,1.9s-0.3,1.9-0.3,3.2h5.3c0,0,0-0.1,0-0.2s0-0.2,0-0.3
			s0-0.2,0-0.3s0-0.2,0-0.2c0-0.6,0-1.2-0.1-1.8s-0.2-1.2-0.3-1.7s-0.4-0.9-0.7-1.2S1073.1,3535,1072.6,3535z"/>
		<path class="st4" d="M1084.5,3543.1c0-1.7,0.2-3.1,0.7-4.4s1.2-2.4,2.1-3.3s1.9-1.6,3.2-2.1s2.6-0.7,4.1-0.7c0.9,0,1.7,0,2.4,0.1
			s1.3,0.2,1.9,0.3s1,0.2,1.4,0.4s0.7,0.2,0.9,0.3l-0.2,6.4h-3.5l-1.1-3.2c-0.2-0.5-0.5-1-0.8-1.3s-0.7-0.5-1.2-0.5
			c-0.5,0-0.9,0.1-1.3,0.4s-0.8,0.6-1.1,1.2s-0.6,1.3-0.7,2.2s-0.3,2-0.3,3.3c0,1.4,0.1,2.5,0.3,3.5s0.5,1.7,0.9,2.3s0.9,1,1.5,1.3
			s1.3,0.4,2.1,0.4c1.1,0,2-0.1,2.8-0.4s1.4-0.6,2-0.9l1,2.4c-0.2,0.2-0.5,0.5-1,0.8s-1,0.6-1.6,0.9s-1.3,0.6-2.1,0.8
			s-1.6,0.3-2.5,0.3c-1.7,0-3.2-0.3-4.4-0.8s-2.2-1.2-3-2.1s-1.3-2-1.7-3.3S1084.5,3544.6,1084.5,3543.1z"/>
		<path class="st4" d="M1104.5,3553v-2.6l2.2-0.4v-22.9l-2.5-0.5v-2.3l7.3-0.9h0.1l1.2,0.9v14.9l-0.1,3l6.2-6.4l-2.7-0.4v-2.7h10.4
			v2.7l-3.5,0.6l-3.9,3.5l6.8,10.5l2.2,0.4v2.6h-10.5v-2.6l1.6-0.4l-4-7l-2.5,2.3l0.1,2.3v2.4l2.3,0.4v2.6H1104.5z"/>
	</g>
	<g class="st3">
		<path class="st4" d="M989.5,3588c0-3.4,1.8-5.3,5-5.3c3.2,0,5,1.9,5,5.3v10.9c0,3.4-1.8,5.3-5,5.3c-3.2,0-5-1.9-5-5.3V3588z
			 M992.8,3599.2c0,1.5,0.7,2.1,1.7,2.1c1,0,1.7-0.6,1.7-2.1v-11.3c0-1.5-0.7-2.1-1.7-2.1c-1.1,0-1.7,0.6-1.7,2.1V3599.2z"/>
		<path class="st4" d="M1005.9,3592.3h4.3v3h-4.3v8.7h-3.3v-21h8.7v3h-5.4V3592.3z"/>
		<path class="st4" d="M1022.6,3597l-4.2-14h3.4l2.5,9.6h0.1l2.5-9.6h3.1l-4.2,14v7h-3.3V3597z"/>
		<path class="st4" d="M1031.6,3588c0-3.4,1.8-5.3,5-5.3c3.2,0,5,1.9,5,5.3v10.9c0,3.4-1.8,5.3-5,5.3c-3.2,0-5-1.9-5-5.3V3588z
			 M1034.9,3599.2c0,1.5,0.7,2.1,1.7,2.1c1,0,1.7-0.6,1.7-2.1v-11.3c0-1.5-0.7-2.1-1.7-2.1c-1.1,0-1.7,0.6-1.7,2.1V3599.2z"/>
		<path class="st4" d="M1047.9,3583v16.2c0,1.5,0.7,2,1.7,2c1.1,0,1.7-0.5,1.7-2V3583h3.1v16c0,3.4-1.7,5.3-4.9,5.3
			s-4.9-1.9-4.9-5.3v-16H1047.9z"/>
		<path class="st4" d="M1064.5,3604c-0.2-0.5-0.3-0.9-0.3-2.6v-3.3c0-2-0.7-2.7-2.2-2.7h-1.1v8.5h-3.3v-21h5c3.4,0,4.9,1.6,4.9,4.8
			v1.6c0,2.2-0.7,3.5-2.2,4.2v0.1c1.6,0.7,2.2,2.3,2.2,4.4v3.2c0,1,0,1.8,0.4,2.5H1064.5z M1060.9,3586v6.4h1.3c1.2,0,2-0.5,2-2.2
			v-2.1c0-1.5-0.5-2.2-1.7-2.2H1060.9z"/>
		<path class="st4" d="M1083.1,3604c-0.2-0.5-0.3-0.9-0.3-2.6v-3.3c0-2-0.7-2.7-2.2-2.7h-1.1v8.5h-3.3v-21h5c3.4,0,4.9,1.6,4.9,4.8
			v1.6c0,2.2-0.7,3.5-2.2,4.2v0.1c1.6,0.7,2.2,2.3,2.2,4.4v3.2c0,1,0,1.8,0.4,2.5H1083.1z M1079.5,3586v6.4h1.3c1.2,0,2-0.5,2-2.2
			v-2.1c0-1.5-0.5-2.2-1.7-2.2H1079.5z"/>
		<path class="st4" d="M1092.6,3591.9h4.5v3h-4.5v6.1h5.7v3h-9v-21h9v3h-5.7V3591.9z"/>
		<path class="st4" d="M1100.3,3583h10.2v3h-3.4v18h-3.3v-18h-3.5V3583z"/>
		<path class="st4" d="M1116.1,3583v16.2c0,1.5,0.7,2,1.7,2c1.1,0,1.7-0.5,1.7-2V3583h3.1v16c0,3.4-1.7,5.3-4.9,5.3
			c-3.2,0-4.9-1.9-4.9-5.3v-16H1116.1z"/>
		<path class="st4" d="M1132.7,3604c-0.2-0.5-0.3-0.9-0.3-2.6v-3.3c0-2-0.7-2.7-2.2-2.7h-1.1v8.5h-3.3v-21h5c3.4,0,4.9,1.6,4.9,4.8
			v1.6c0,2.2-0.7,3.5-2.2,4.2v0.1c1.7,0.7,2.2,2.3,2.2,4.4v3.2c0,1,0,1.8,0.4,2.5H1132.7z M1129.1,3586v6.4h1.3c1.2,0,2-0.5,2-2.2
			v-2.1c0-1.5-0.5-2.2-1.7-2.2H1129.1z"/>
		<path class="st4" d="M1141.8,3588.8L1141.8,3588.8l-0.1,15.2h-3v-21h4.1l3.3,12.6h0.1V3583h2.9v21h-3.4L1141.8,3588.8z"/>
	</g>
</g>
</svg>
