<?xml version="1.0" encoding="utf-8"?>
<!-- Generator: Adobe Illustrator 25.0.1, SVG Export Plug-In . SVG Version: 6.00 Build 0)  -->
<svg version="1.1" id="guidanceicon" xmlns="http://www.w3.org/2000/svg" xmlns:xlink="http://www.w3.org/1999/xlink" x="0px"
	 y="0px" viewBox="0 0 350 323.5" style="enable-background:new 0 0 350 323.5;" xml:space="preserve">
<style type="text/css">
	.st0{enable-background:new    ;}
	.st1{fill:#4F9AFF;}
	.st2{fill:#FF7676;}
</style>
<g>
	<g id="efileicon_1_" transform="translate(-1359 -4202)">
		<g id="efile_1_" transform="translate(114 436)">
			
				<image style="overflow:visible;enable-background:new    ;" width="93" height="164" id="Rectangle_23_1_" xlink:href="7FA83097.png"  transform="matrix(1.0868 0 0 1.0868 1267.1084 3838.6577)">
			</image>
			<g class="st0">
				<path class="st1" d="M1296.2,3942.9c0-5.3,0.9-10.3,2.6-14.9s4.1-8.7,7.1-12.2c3-3.5,6.5-6.2,10.5-8.2c4-2,8.4-3,13.1-3
					c2.9,0,5.3,0.3,7.4,1c2,0.7,3.8,1.6,5.1,2.7c1.4,1.2,2.4,2.5,3,4.1c0.7,1.6,1,3.3,1,5.1c0.1,2.8-0.5,5.2-1.6,7.5
					c-1.1,2.2-2.6,4.2-4.5,5.9c-1.9,1.7-4,3.2-6.4,4.5c-2.4,1.3-4.9,2.3-7.4,3.1c-2.5,0.8-5,1.4-7.5,1.8c-2.5,0.4-4.7,0.6-6.7,0.6
					c-0.1,2.3,0.1,4.5,0.5,6.6c0.4,2.1,1,3.9,1.8,5.5c0.9,1.6,2,2.8,3.4,3.8c1.4,0.9,3,1.4,5,1.4c1.8,0,3.5-0.2,5.1-0.7
					c1.6-0.4,3.1-1.1,4.5-1.8c1.4-0.8,2.7-1.7,4-2.7s2.4-2.1,3.4-3.2l3,5c-0.7,1.1-1.8,2.4-3.2,3.7c-1.4,1.4-3.1,2.7-5.1,3.9
					c-2,1.2-4.3,2.3-6.9,3.1c-2.6,0.8-5.4,1.2-8.5,1.2c-4.1,0-7.5-0.7-10.4-2c-2.9-1.4-5.2-3.2-7-5.4c-1.8-2.2-3.1-4.8-3.9-7.6
					C1296.6,3948.8,1296.2,3945.8,1296.2,3942.9z M1312,3934.6c1.8,0,3.9-0.4,6.2-1.1s4.5-1.8,6.5-3.1c2-1.4,3.7-3,5.1-4.9
					c1.4-1.9,2-4.2,1.9-6.7c-0.1-2.5-0.6-4.3-1.5-5.5c-0.9-1.2-2.2-1.8-3.9-1.8c-1.6,0-3,0.4-4.3,1.1c-1.3,0.7-2.4,1.7-3.4,2.9
					c-1,1.2-1.9,2.6-2.6,4.2c-0.8,1.6-1.4,3.2-1.9,5c-0.5,1.7-0.9,3.4-1.3,5.1C1312.3,3931.5,1312.1,3933.1,1312,3934.6z"/>
			</g>
			
				<image style="overflow:visible;enable-background:new    ;" width="119" height="92" id="Rectangle_24_1_" xlink:href="7FA83095.png"  transform="matrix(1.0845 0 0 1.0845 1315.5151 3896.4978)">
			</image>
			<g id="Path_30_1_">
				<path class="st2" d="M1421.3,3932.1l-43.2,26.6v-18.3l-32,4.7l45.5-24.1l-4.9,24.1L1421.3,3932.1z"/>
			</g>
			
				<image style="overflow:visible;enable-background:new    ;" width="163" height="160" id="Rectangle_25_1_" xlink:href="7FA8309B.png"  transform="matrix(1.0846 0 0 1.0846 1395.6472 3840.4612)">
			</image>
			<g class="st0">
				<path class="st1" d="M1432,3969.9v-47.1l-6.1-0.7c-0.8-0.2-1.4-0.5-1.9-0.8c-0.5-0.4-0.7-0.9-0.7-1.7v-4h8.8v-3.1
					c0-3.4,0.5-6.5,1.6-9.3c1.1-2.8,2.6-5.3,4.8-7.3c2.1-2,4.8-3.6,7.9-4.8c3.2-1.1,6.8-1.7,11-1.7c1.4,0,2.8,0.1,4.3,0.3
					c1.5,0.2,2.7,0.5,3.8,0.8l-0.4,5.1c0,0.4-0.2,0.6-0.4,0.8c-0.2,0.1-0.6,0.2-1,0.3c-0.4,0-0.9,0-1.5,0c-0.6,0-1.3,0-2.1,0
					c-6.5,0-11.2,1.3-14.1,4c-2.9,2.7-4.4,6.7-4.4,12.1v2.8h33.5v54.4h-9.8v-47.3h-23.4v47.3H1432z"/>
			</g>
			<g class="st0">
				<path class="st1" d="M1494.6,3889.3v80.6h-9.7v-80.6H1494.6z"/>
			</g>
			<g class="st0">
				<path class="st1" d="M1549,3962.1c-1.2,1.5-2.6,2.7-4.3,3.8c-1.7,1.1-3.5,2-5.4,2.7s-3.9,1.2-5.9,1.6c-2,0.3-4.1,0.5-6.1,0.5
					c-3.8,0-7.4-0.6-10.6-1.9c-3.2-1.3-6-3.2-8.4-5.7c-2.4-2.5-4.2-5.6-5.5-9.3c-1.3-3.7-2-7.9-2-12.7c0-3.9,0.6-7.5,1.8-10.8
					c1.2-3.4,2.9-6.3,5.1-8.7c2.2-2.5,4.9-4.4,8.2-5.8c3.2-1.4,6.8-2.1,10.8-2.1c3.3,0,6.4,0.6,9.2,1.7c2.8,1.1,5.3,2.7,7.3,4.8
					c2.1,2.1,3.7,4.7,4.8,7.8c1.2,3.1,1.8,6.6,1.8,10.5c0,1.5-0.2,2.6-0.5,3.1c-0.3,0.5-0.9,0.8-1.9,0.8h-37.1
					c0.1,3.5,0.6,6.6,1.5,9.1c0.9,2.6,2.1,4.8,3.6,6.5c1.5,1.7,3.4,3,5.5,3.9s4.5,1.3,7.1,1.3c2.4,0,4.6-0.3,6.3-0.8
					c1.8-0.6,3.3-1.2,4.6-1.8c1.3-0.7,2.3-1.3,3.2-1.8c0.9-0.6,1.6-0.8,2.2-0.8c0.8,0,1.4,0.3,1.9,0.9L1549,3962.1z M1541.2,3936.2
					c0-2.3-0.3-4.3-1-6.2c-0.6-1.9-1.6-3.5-2.8-4.9c-1.2-1.4-2.7-2.4-4.5-3.2c-1.8-0.7-3.7-1.1-6-1.1c-4.7,0-8.4,1.4-11.1,4.1
					c-2.7,2.7-4.4,6.5-5.1,11.3H1541.2z"/>
			</g>
		</g>
	</g>
</g>
</svg>
