<?xml version="1.0" encoding="utf-8"?>
<!-- Generator: Adobe Illustrator 25.0.1, SVG Export Plug-In . SVG Version: 6.00 Build 0)  -->
<svg version="1.1" id="Circle1" xmlns="http://www.w3.org/2000/svg" xmlns:xlink="http://www.w3.org/1999/xlink" x="0px" y="0px"
	 viewBox="0 0 373 270" style="enable-background:new 0 0 373 270;" xml:space="preserve">
<style type="text/css">
	.st0{enable-background:new    ;}
	.st1{fill:#4F9AFF;}
	.st2{fill:#FF7676;}
</style>
<g>
	<g class="st0">
		<path class="st1" d="M30.9,150.8c0-6.5,1.1-12.6,3.2-18.3c2.1-5.6,5-10.7,8.7-15s8-7.6,12.9-10.1c4.9-2.5,10.3-3.7,16.1-3.7
			c3.6,0,6.5,0.4,9.1,1.2c2.5,0.9,4.7,2,6.3,3.3c1.7,1.5,2.9,3.1,3.7,5c0.9,2,1.2,4.1,1.2,6.3c0.1,3.4-0.6,6.4-2,9.2
			c-1.4,2.7-3.2,5.2-5.5,7.2s-4.9,3.9-7.9,5.5s-6,2.8-9.1,3.8c-3.1,1-6.1,1.7-9.2,2.2c-3.1,0.5-5.8,0.7-8.2,0.7
			c-0.1,2.8,0.1,5.5,0.6,8.1c0.5,2.6,1.2,4.8,2.2,6.8c1.1,2,2.5,3.4,4.2,4.7c1.7,1.1,3.7,1.7,6.1,1.7c2.2,0,4.3-0.2,6.3-0.9
			c2-0.5,3.8-1.4,5.5-2.2c1.7-1,3.3-2.1,4.9-3.3s2.9-2.6,4.2-3.9l3.7,6.1c-0.9,1.4-2.2,2.9-3.9,4.5c-1.7,1.7-3.8,3.3-6.3,4.8
			c-2.5,1.5-5.3,2.8-8.5,3.8c-3.2,1-6.6,1.5-10.4,1.5c-5,0-9.2-0.9-12.8-2.5c-3.6-1.7-6.4-3.9-8.6-6.6c-2.2-2.7-3.8-5.9-4.8-9.3
			C31.3,158.1,30.9,154.4,30.9,150.8z M50.2,140.6c2.2,0,4.8-0.5,7.6-1.4c2.8-0.9,5.5-2.2,8-3.8c2.5-1.7,4.5-3.7,6.3-6
			c1.7-2.3,2.5-5.2,2.3-8.2c-0.1-3.1-0.7-5.3-1.8-6.8c-1.1-1.5-2.7-2.2-4.8-2.2c-2,0-3.7,0.5-5.3,1.4c-1.6,0.9-2.9,2.1-4.2,3.6
			c-1.2,1.5-2.3,3.2-3.2,5.2c-1,2-1.7,3.9-2.3,6.1c-0.6,2.1-1.1,4.2-1.6,6.3C50.6,136.8,50.4,138.8,50.2,140.6z"/>
	</g>
	<g id="Path_30_2_">
		<path class="st2" d="M184.4,137.6l-53,32.7v-22.5l-39.3,5.8L148,124l-6,29.6L184.4,137.6z"/>
	</g>
	<g class="st0">
		<path class="st1" d="M197.5,184v-57.8l-7.5-0.9c-1-0.2-1.7-0.6-2.3-1c-0.6-0.5-0.9-1.1-0.9-2.1v-4.9h10.8v-3.8c0-4.2,0.6-8,2-11.4
			c1.4-3.4,3.2-6.5,5.9-9c2.6-2.5,5.9-4.4,9.7-5.9c3.9-1.4,8.3-2.1,13.5-2.1c1.7,0,3.4,0.1,5.3,0.4s3.3,0.6,4.7,1l-0.5,6.3
			c0,0.5-0.2,0.7-0.5,1c-0.2,0.1-0.7,0.2-1.2,0.4c-0.5,0-1.1,0-1.8,0c-0.7,0-1.6,0-2.6,0c-8,0-13.7,1.6-17.3,4.9
			c-3.6,3.3-5.4,8.2-5.4,14.9v3.4h41.1v66.8h-12V126h-28.7v58.1h-12.2V184z"/>
	</g>
	<g class="st0">
		<path class="st1" d="M274.4,85V184h-11.9V85H274.4z"/>
	</g>
	<g class="st0">
		<path class="st1" d="M341.2,174.4c-1.5,1.8-3.2,3.3-5.3,4.7c-2.1,1.4-4.3,2.5-6.6,3.3c-2.3,0.9-4.8,1.5-7.2,2
			c-2.5,0.4-5,0.6-7.5,0.6c-4.7,0-9.1-0.7-13-2.3c-3.9-1.6-7.4-3.9-10.3-7c-2.9-3.1-5.2-6.9-6.8-11.4c-1.6-4.5-2.5-9.7-2.5-15.6
			c0-4.8,0.7-9.2,2.2-13.3c1.5-4.2,3.6-7.7,6.3-10.7c2.7-3.1,6-5.4,10.1-7.1c3.9-1.7,8.3-2.6,13.3-2.6c4.1,0,7.9,0.7,11.3,2.1
			c3.4,1.4,6.5,3.3,9,5.9c2.6,2.6,4.5,5.8,5.9,9.6c1.5,3.8,2.2,8.1,2.2,12.9c0,1.8-0.2,3.2-0.6,3.8c-0.4,0.6-1.1,1-2.3,1h-45.5
			c0.1,4.3,0.7,8.1,1.8,11.2c1.1,3.2,2.6,5.9,4.4,8s4.2,3.7,6.8,4.8s5.5,1.6,8.7,1.6c2.9,0,5.6-0.4,7.7-1c2.2-0.7,4.1-1.5,5.6-2.2
			c1.6-0.9,2.8-1.6,3.9-2.2c1.1-0.7,2-1,2.7-1c1,0,1.7,0.4,2.3,1.1L341.2,174.4z M331.6,142.6c0-2.8-0.4-5.3-1.2-7.6
			c-0.7-2.3-2-4.3-3.4-6c-1.5-1.7-3.3-2.9-5.5-3.9c-2.2-0.9-4.5-1.4-7.4-1.4c-5.8,0-10.3,1.7-13.6,5c-3.3,3.3-5.4,8-6.3,13.9
			L331.6,142.6L331.6,142.6z"/>
	</g>
</g>
</svg>
