<svg xmlns="http://www.w3.org/2000/svg" width="23" height="15.545" viewBox="0 0 23 15.545">
  <g id="email" transform="translate(0 -82.979)">
    <g id="Group_11" data-name="Group 11" transform="translate(5.721 82.979)">
      <g id="Group_10" data-name="Group 10">
        <path id="Path_8" data-name="Path 8" d="M127.819,82.979h-.006a.449.449,0,1,0,0,.9h.006a.449.449,0,1,0,0-.9Z" transform="translate(-127.364 -82.979)" fill="#273a86"/>
      </g>
    </g>
    <g id="Group_13" data-name="Group 13" transform="translate(0 82.979)">
      <g id="Group_12" data-name="Group 12">
        <path id="Path_9" data-name="Path 9" d="M21.2,82.979H8.179a.449.449,0,0,0,0,.9H21.2c.023,0,.046,0,.069,0l-1.255,1.255h-5.86a.449.449,0,0,0,0,.9h4.961L12.857,92.3a1.921,1.921,0,0,1-2.714,0L1.728,83.881c.023,0,.046,0,.069,0H4.178a.449.449,0,0,0,0-.9H1.8a1.8,1.8,0,0,0-1.8,1.8V96.727a1.8,1.8,0,0,0,1.8,1.8H21.2a1.8,1.8,0,0,0,1.8-1.8V84.776A1.8,1.8,0,0,0,21.2,82.979ZM.9,96.727V84.776A.891.891,0,0,1,.98,84.4l6.252,6.252-6.3,6.3A.9.9,0,0,1,.9,96.727Zm20.3.9H1.8a.894.894,0,0,1-.232-.031l6.3-6.3,1.64,1.64a2.82,2.82,0,0,0,3.984,0l1.64-1.64,6.3,6.3A.894.894,0,0,1,21.2,97.625Zm.9-.9a.9.9,0,0,1-.031.232l-6.3-6.3L22.02,84.4a.891.891,0,0,1,.082.372Z" transform="translate(0 -82.979)" fill="#273a86"/>
      </g>
    </g>
    <g id="Group_15" data-name="Group 15" transform="translate(11.821 85.136)">
      <g id="Group_14" data-name="Group 14">
        <path id="Path_10" data-name="Path 10" d="M263.606,131H263.6a.449.449,0,0,0,0,.9h.007a.449.449,0,0,0,0-.9Z" transform="translate(-263.15 -131)" fill="#273a86"/>
      </g>
    </g>
  </g>
</svg>
