<svg xmlns="http://www.w3.org/2000/svg" width="45.821" height="45.82" viewBox="0 0 45.821 45.82">
  <g id="igicons" transform="translate(-1660.191 -4300)">
    <path id="Path_33" data-name="Path 33" d="M1662.89,4310.682a2.749,2.749,0,1,1-2.749-2.747A2.751,2.751,0,0,1,1662.89,4310.682Zm-14.98,19.865a7.637,7.637,0,1,1,7.637-7.637A7.634,7.634,0,0,1,1647.91,4330.547Zm0-19.4a11.765,11.765,0,1,0,11.765,11.765A11.763,11.763,0,0,0,1647.91,4311.146Zm0-7.021c6.115,0,6.844.03,9.26.135a12.637,12.637,0,0,1,4.251.793,7.541,7.541,0,0,1,4.349,4.347,12.661,12.661,0,0,1,.789,4.253c.108,2.416.134,3.142.134,9.259s-.029,6.844-.141,9.26a12.9,12.9,0,0,1-.8,4.252,7.278,7.278,0,0,1-1.716,2.638,7.14,7.14,0,0,1-2.635,1.711,12.8,12.8,0,0,1-4.268.789c-2.432.107-3.148.134-9.276.134s-6.846-.029-9.277-.142a12.986,12.986,0,0,1-4.268-.8,7.089,7.089,0,0,1-2.634-1.717,6.946,6.946,0,0,1-1.718-2.634,12.977,12.977,0,0,1-.8-4.268c-.087-2.406-.117-3.148-.117-9.249s.031-6.846.117-9.279a12.949,12.949,0,0,1,.8-4.266,7.614,7.614,0,0,1,4.352-4.352,12.655,12.655,0,0,1,4.24-.8c2.434-.087,3.15-.115,9.276-.115Zm0-4.124c-6.224,0-7,.028-9.445.138a16.873,16.873,0,0,0-5.561,1.064,11.709,11.709,0,0,0-6.7,6.7,16.807,16.807,0,0,0-1.065,5.561c-.115,2.444-.137,3.222-.137,9.445s.028,7,.137,9.444a16.894,16.894,0,0,0,1.065,5.563,11.711,11.711,0,0,0,6.7,6.7,16.924,16.924,0,0,0,5.561,1.065c2.444.114,3.221.137,9.445.137s7-.028,9.444-.137a16.967,16.967,0,0,0,5.562-1.065,11.71,11.71,0,0,0,6.7-6.7,16.932,16.932,0,0,0,1.065-5.562c.115-2.443.137-3.22.137-9.444s-.029-7-.137-9.445a16.94,16.94,0,0,0-1.065-5.561,11.708,11.708,0,0,0-6.7-6.7,16.818,16.818,0,0,0-5.562-1.064C1654.911,4300.023,1654.135,4300,1647.91,4300Z" transform="translate(35.191)" fill="#273a86"/>
  </g>
</svg>
