<svg xmlns="http://www.w3.org/2000/svg" width="121.5" height="138.286" viewBox="0 0 121.5 138.286">
  <g id="Locksm" transform="translate(-1484 -1351.714)">
    <path id="Icon_awesome-lock" data-name="Icon awesome-lock" d="M104.911,58.75H98.616V39.866a39.866,39.866,0,0,0-79.732,0V58.75H12.589A12.593,12.593,0,0,0,0,71.339V121.7a12.593,12.593,0,0,0,12.589,12.589h92.321A12.593,12.593,0,0,0,117.5,121.7V71.339A12.593,12.593,0,0,0,104.911,58.75Zm-27.277,0H39.866V39.866a18.884,18.884,0,1,1,37.768,0Z" transform="translate(1486 1353.714)" fill="#5b8fc2" stroke="#000" stroke-width="4"/>
    <path id="Path_271" data-name="Path 271" d="M1008.306,292.362l15.981.368-2.079,8.5a15.013,15.013,0,0,1,2.718,12.106c-1.391,3.882-3.285,7.113-8.707,7.665-6.7.034-8.511-5.014-9.284-9.021a14.541,14.541,0,0,1,3.016-10.468Z" transform="matrix(-1, 0.017, -0.017, -1, 2568.315, 1736.103)" fill="#587cc4"/>
  </g>
</svg>
