<svg xmlns="http://www.w3.org/2000/svg" width="325.263" height="326.375" viewBox="0 0 325.263 326.375">
  <path id="Path_26" data-name="Path 26" d="M561.074,3254.975a3.72,3.72,0,0,1,4.351.461l11.08,9.968a3.72,3.72,0,0,0,3.635.777l14.139-4.557a3.729,3.729,0,0,1,4.16,1.361l8.786,12.077a3.734,3.734,0,0,0,3.393,1.522l14.772-1.492a3.737,3.737,0,0,1,3.786,2.2l6.109,13.661a3.742,3.742,0,0,0,3,2.2l14.76,1.638a3.752,3.752,0,0,1,3.247,2.945l3.16,14.649a3.761,3.761,0,0,0,2.481,2.777l14.1,4.7a3.765,3.765,0,0,1,2.566,3.558l.074,15a3.772,3.772,0,0,0,1.852,3.235l12.832,7.558a3.778,3.778,0,0,1,1.775,4.016l-3.02,14.687a3.779,3.779,0,0,0,1.144,3.548l11,10.089a3.784,3.784,0,0,1,.907,4.3l-5.981,13.733a3.789,3.789,0,0,0,.387,3.711l8.68,12.176a3.789,3.789,0,0,1,0,4.394l-8.68,12.177a3.788,3.788,0,0,0-.387,3.71l5.981,13.732a3.783,3.783,0,0,1-.907,4.3l-11,10.088a3.782,3.782,0,0,0-1.144,3.55l3.02,14.686a3.778,3.778,0,0,1-1.775,4.017l-12.832,7.558a3.773,3.773,0,0,0-1.852,3.234l-.074,15a3.763,3.763,0,0,1-2.566,3.558l-14.1,4.7a3.762,3.762,0,0,0-2.481,2.778l-3.16,14.648a3.753,3.753,0,0,1-3.247,2.945l-14.76,1.639a3.746,3.746,0,0,0-3,2.2l-6.108,13.661a3.739,3.739,0,0,1-3.786,2.2l-14.772-1.494a3.733,3.733,0,0,0-3.393,1.522l-8.786,12.077a3.729,3.729,0,0,1-4.16,1.363l-14.139-4.558a3.726,3.726,0,0,0-3.635.779l-11.08,9.967a3.723,3.723,0,0,1-4.351.461l-12.892-7.425a3.726,3.726,0,0,0-3.716,0l-12.892,7.425a3.723,3.723,0,0,1-4.351-.461l-11.08-9.967a3.726,3.726,0,0,0-3.635-.779l-14.139,4.558a3.729,3.729,0,0,1-4.16-1.363l-8.787-12.077a3.731,3.731,0,0,0-3.392-1.522l-14.772,1.494a3.739,3.739,0,0,1-3.786-2.2l-6.109-13.661a3.744,3.744,0,0,0-3-2.2l-14.76-1.639a3.753,3.753,0,0,1-3.247-2.945l-3.16-14.648a3.761,3.761,0,0,0-2.481-2.777l-14.1-4.7a3.763,3.763,0,0,1-2.566-3.558l-.074-15a3.773,3.773,0,0,0-1.853-3.234l-12.832-7.558a3.778,3.778,0,0,1-1.775-4.017l3.02-14.686a3.785,3.785,0,0,0-1.144-3.55l-11-10.088a3.783,3.783,0,0,1-.907-4.3l5.98-13.732a3.787,3.787,0,0,0-.387-3.71l-8.68-12.177a3.792,3.792,0,0,1,0-4.395l8.68-12.176a3.788,3.788,0,0,0,.387-3.711l-5.98-13.732a3.786,3.786,0,0,1,.907-4.3l11-10.087a3.785,3.785,0,0,0,1.144-3.549l-3.02-14.687a3.778,3.778,0,0,1,1.775-4.016l12.832-7.558a3.773,3.773,0,0,0,1.853-3.235l.072-14.994a3.768,3.768,0,0,1,2.567-3.56l14.1-4.7a3.761,3.761,0,0,0,2.481-2.777l3.16-14.649a3.755,3.755,0,0,1,3.247-2.945l14.759-1.638a3.745,3.745,0,0,0,3-2.2l6.108-13.662a3.74,3.74,0,0,1,3.787-2.2l14.77,1.492a3.733,3.733,0,0,0,3.393-1.522l8.787-12.077a3.728,3.728,0,0,1,4.16-1.361l14.139,4.558a3.722,3.722,0,0,0,3.634-.779l11.081-9.968a3.72,3.72,0,0,1,4.351-.461l12.892,7.424a3.718,3.718,0,0,0,3.716,0Z" transform="translate(-383.693 -3254.477)" fill="#ff7676"/>
</svg>
